<?xml version="1.0" encoding="utf-8"?>
<!-- Generator: Adobe Illustrator 18.1.1, SVG Export Plug-In . SVG Version: 6.00 Build 0)  -->
<!DOCTYPE svg PUBLIC "-//W3C//DTD SVG 1.1//EN" "http://www.w3.org/Graphics/SVG/1.1/DTD/svg11.dtd">
<svg version="1.1" id="Calque_1" xmlns="http://www.w3.org/2000/svg" xmlns:xlink="http://www.w3.org/1999/xlink" x="0px" y="0px"
	 viewBox="0 0 640 480" enable-background="new 0 0 640 480" xml:space="preserve">
<path fill="#66CC33" d="M495.3,301.9V190.1h-0.3c-5.1-96.9-86.5-174.2-185.9-174.2C206.5,15.9,123,98.4,123,199.8
	c0,30.5,7.6,59.3,20.9,84.6c-3.7,4-5.9,9.3-5.9,15.2c0,12.4,10,22.4,22.4,22.4c12.4,0,22.4-10,22.4-22.4c0-12.4-10-22.4-22.4-22.4
	c-1.9,0-3.8,0.3-5.6,0.7c-12.3-23.4-19.2-50-19.2-78.1c0-94.4,77.8-171.3,173.5-171.3s173.5,76.8,173.5,171.3V294l-4.9-4.9v-20.5
	c0-14.6-11.8-26.5-26.5-26.5s-26.5,11.8-26.5,26.5v81.7c0,14.6,11.8,26.5,26.5,26.5s26.5-11.8,26.5-26.5v-26.1l12.4-12.4
	c9.7,10.7,14.9,22.2,14.9,34c0,24.1-21.4,47.1-60.4,64.8c-27.5,12.5-61.2,21.1-98,25.3c-1.9-10.8-11.4-19.1-22.8-19.1h-29.4
	c-12.8,0-23.1,10.4-23.1,23.1s10.4,23.1,23.1,23.1h29.4c10.5,0,19.3-7,22.2-16.6c38.6-4.3,74.1-13.3,103-26.4
	c42.9-19.5,66.5-45.9,66.5-74.3C515.6,330.2,508.6,315.4,495.3,301.9z"/>
</svg>
