<?xml version="1.0" encoding="utf-8"?>
<!-- Generator: Adobe Illustrator 18.1.1, SVG Export Plug-In . SVG Version: 6.00 Build 0)  -->
<!DOCTYPE svg PUBLIC "-//W3C//DTD SVG 1.1//EN" "http://www.w3.org/Graphics/SVG/1.1/DTD/svg11.dtd">
<svg version="1.1" id="Calque_1" xmlns="http://www.w3.org/2000/svg" xmlns:xlink="http://www.w3.org/1999/xlink" x="0px" y="0px"
	 viewBox="0 0 200 200" enable-background="new 0 0 200 200" xml:space="preserve">
<g id="Yoga-Mudra_links">
	<path fill="#5AC4D4" d="M2.8,147.3c13-5.5,46.5-0.4,68.5,2.9c7.7,1.1,14.8,2.2,16.7,2.2c7.5-0.4,18.3-3.3,22.5-4.8
		c2.2-0.9,11.9-5.3,18.3-8.4h0.2h0.2c3.7-1.8,6.6-3.1,7.7-3.5c1.5-0.7,10.6-7,18.5-12.8c0,0,0.2,0,0.2-0.2l34.6-21.4
		c-3.7-2.9-9.9-6.4-15.6-4.4c-4.2,1.5-13,5.5-14.1,6.2L128.2,122c-2,5.3-4.4,10.1-6.8,12.3c-4,3.3-11.9,7.5-12.1,7.7
		c-0.4,0.2-1.1,0.4-1.5,0.4c-1.1,0-2.4-0.7-2.9-1.8c-0.9-1.5-0.2-3.5,1.3-4.4c0,0,7.5-4.2,11-7c1.8-1.3,3.5-5.3,5.1-10.1
		c0-0.2,0-0.4,0.2-0.4c2.6-7.5,4.6-16.7,4.6-19.8s-8.2-22.5-11.9-26.9c-1.8-1.3-12.1-1.3-22.7,0c0,0.9,0.2,2.2,0.9,3.3
		c1.8,2.9,5.9,4.6,12.1,5.5c1.1,0.2,2,0.7,2.4,1.5c6.6,11,0,27.8-0.2,28.4c-0.2,0.7-0.9,1.3-1.5,1.8l-13.9,7.3
		c-0.7,0.4-1.5,0.4-2.4,0.2l-15.6-4.4c-0.7-0.2-1.1-0.7-1.5-1.1L57.2,95.7c-0.9-1.1-1.1-2.6-0.2-4c0.4-0.7,9.9-15.2,21.4-25.6
		c5.1-4.6,11.9-4.8,18.1-5.3c8.8-0.4,13.9-1.1,15.4-8.6c-4.6-1.1-17.4-2.6-28.2-3.5c-0.2,0-12.1-1.3-27.5,13.9
		C39.6,79,14.1,93.5,5.7,98c-1.5,0.9-3.5,0.2-4.4-1.5S1.1,92.9,2.8,92c8.2-4.2,32.8-18.3,48.7-33.9c17.8-17.6,32.4-15.9,32.8-15.6
		c31.1,2.6,32.8,4.8,33.7,5.9c0.7,0.9,0.9,1.8,0.9,2.6c-0.9,7-3.7,11.2-7.3,13.4c5.1,0.4,7.3,1.8,8.4,3.1c4,4.8,13.7,26,13.7,31.3
		c0,2.2-0.9,7.7-2.6,14.1l26.4-15.4c0,0,0.2,0,0.2-0.2c0.4-0.2,9.9-4.6,14.5-6.4c13-4.8,25.3,8.2,26,8.8c0.7,0.7,1.1,1.8,0.9,2.6
		c-0.2,0.9-0.7,1.8-1.5,2.4l-20.3,12.6c0.7,0,1.3,0,1.8,0c14.3-0.7,19.4,11.2,20,17.6c0.2,1.8-1.1,3.5-2.9,3.7l-28,3.1
		c4,4.6,4.6,11,4.4,14.5c-0.2,1.8-1.5,3.1-3.3,3.1h-0.2L124,157c0,0-10.8-0.7-16.7-1.1c-5.3,1.5-12.8,3.1-18.7,3.5
		c-0.2,0-0.2,0-0.4,0c-2.6,0-8.2-0.9-17.6-2.2c-20-3.1-53.8-8.2-65-3.5c-1.8,0.7-3.5,0-4.4-1.8C0.4,149.9,1.3,148,2.8,147.3z
		 M87.6,78.3c-2.2-3.5-2-7.3-1.8-9.3c-1.1,0.4-2.2,1.1-3.1,2c-8.4,7.7-15.9,17.8-18.9,22.3l13.2,16.1l13.2,3.7l11.5-6.2
		c1.5-4.4,3.7-13.7,0.9-20C95.3,85.6,90.3,82.8,87.6,78.3z M179.3,123.5c-3.1,0.2-9.3,0.4-13.7,0.7l-6.6,4
		c-2.4,1.8-8.2,5.9-12.8,9.3c2.4-0.2,4-0.4,4-0.4l41.4-4.6C190.5,128.4,187.2,123.1,179.3,123.5z M124.2,150.2l41.4,2.2
		c-0.4-3.3-2.2-7.9-7.3-9.7l-7.3,0.9c-0.7,0-15.4,1.5-19.6,2c-3.7,1.8-7,3.3-10.1,4.6C123.1,150.2,124.2,150.2,124.2,150.2z"/>
</g>
</svg>
