<?xml version="1.0" encoding="utf-8"?>
<!-- Generator: Adobe Illustrator 18.1.1, SVG Export Plug-In . SVG Version: 6.00 Build 0)  -->
<!DOCTYPE svg PUBLIC "-//W3C//DTD SVG 1.1//EN" "http://www.w3.org/Graphics/SVG/1.1/DTD/svg11.dtd">
<svg version="1.1" id="Calque_1" xmlns="http://www.w3.org/2000/svg" xmlns:xlink="http://www.w3.org/1999/xlink" x="0px" y="0px"
	 viewBox="0 0 640 480" enable-background="new 0 0 640 480" xml:space="preserve">
<path fill="#F7931E" d="M454.1,233c-7.5-8.6-17.5-12-28.9-12H213.6c-11.4,0-21.4,3.3-28.9,12c-8.4,9.7-9.2,20.2-9,28.8l3.6,133.7
	c1,37,35.3,67.5,76.5,67.5H383c41.2,0,75.5-30.9,76.5-67.9l3.6-133C463.3,253.6,462.5,242.7,454.1,233z M441.6,394.7
	c-0.8,30.6-31.1,50.3-58.6,50.3H255.8c-27.6,0-57.8-19.7-58.6-50.3l-3.6-133.6c-0.2-8.2,1.1-12.1,4.6-16.1c4-4.7,9.2-5.9,15.4-5.9
	h211.7c6.2,0,11.3,1.1,15.4,5.8c3.5,4,4.8,8.8,4.6,16.9L441.6,394.7z"/>
<g>
	<path fill="#F7931E" d="M332.2,315c-3.4-3.4-7.9-5.3-12.8-5.3c-4.8,0-9.4,1.9-12.8,5.3c-3.4,3.4-5.3,8-5.3,12.8
		c0,4.9,2.7,9.5,6.2,13c1.7,1.7,3.4,4,3.4,6.4v22.1c0,0.5,4.5,1,9,1s9-0.5,9-1v-22.1c0-2.4,1.1-4.7,2.8-6.4c3.6-3.4,5.6-8.1,5.6-13
		C337.5,323,335.6,318.5,332.2,315z M332.2,315c-3.4-3.4-7.9-5.3-12.8-5.3c-4.8,0-9.4,1.9-12.8,5.3c-3.4,3.4-5.3,8-5.3,12.8
		c0,4.9,2.7,9.5,6.2,13c1.7,1.7,3.4,4,3.4,6.4v22.1c0,0.5,4.5,1,9,1s9-0.5,9-1v-22.1c0-2.4,1.1-4.7,2.8-6.4c3.6-3.4,5.6-8.1,5.6-13
		C337.5,323,335.6,318.5,332.2,315z M344.9,302.4c-6.8-6.8-15.8-10.6-25.4-10.6c-9.6,0-18.6,3.7-25.4,10.6s-9.9,15.9-9.8,25.6
		c0.1,8.4,2.8,16.3,8.8,22.7v22.7c0,5.6,2.9,14.9,27,14.9s27-9.3,27-14.9v-22.7c6-6.4,8.3-14.3,8.3-22.7
		C355.3,318.3,351.7,309.2,344.9,302.4z"/>
</g>
<path fill="#F7931E" d="M363.7,29.3c-27.8-16.1-63.7-16.1-91.5,0C239.9,48,220,85.1,220,131.2v5.8h18v-5.8
	c0-40.1,16.5-70.7,43.6-86.4c22.3-12.9,50-12.9,72.3,0c27.1,15.7,42.1,46.3,42.1,86.4V221h18v-89.8C414,85.1,396.1,48,363.7,29.3z
	 M351.4,50.8c-20.5-11.8-46.3-11.8-66.8,0c-25,14.4-40.5,43.8-40.5,80.4v5.8h18.8l0.2-3.1v-2.7c0-30.1,12.2-53.7,31.5-64.8
	c14.9-8.6,32-8.6,46.9,0c19.3,11.1,29.6,34.8,29.6,64.8V221h19v-89.8C390,94.5,376.5,65.3,351.4,50.8z"/>
</svg>
