<?xml version="1.0" encoding="utf-8"?>
<!-- Generator: Adobe Illustrator 18.1.1, SVG Export Plug-In . SVG Version: 6.00 Build 0)  -->
<!DOCTYPE svg PUBLIC "-//W3C//DTD SVG 1.1//EN" "http://www.w3.org/Graphics/SVG/1.1/DTD/svg11.dtd">
<svg version="1.1" id="Calque_1" xmlns="http://www.w3.org/2000/svg" xmlns:xlink="http://www.w3.org/1999/xlink" x="0px" y="0px"
	 viewBox="0 0 200 200" enable-background="new 0 0 200 200" xml:space="preserve">
<g>
	<path fill="#F7931E" d="M168.7,94.3h-3.1c-4.3-11.3-13.1-21.1-24.7-27.9c0.1-15.5,1.5-18.8,4.7-28.7c-11.9,1.6-24,8.9-30.1,19.4
		c-4-0.7-8.1-1.2-12.3-1.3c0.8-2.5,1.3-5.3,1.3-8.1c0-14.5-11.7-26.2-26.2-26.2S52,33.2,52,47.6c0,7.2,3,13.7,7.7,18.5
		c-11.4,6.6-20.1,16-24.6,26.9c-8-2.9-12.2-7.3-12.2-12.9c0-6,4.9-11.6,9.4-13l-1.7-5.5c-7.4,2.3-13.4,10.6-13.5,18.5
		c0,4.8,2.1,13.4,16.1,18.5c-1,3.8-1.6,7.7-1.6,11.7c0,14.6,7.2,27.9,19,37.7l-3.6,10.4c-2.4,6.8,1.2,14.3,8.1,16.7l8,2.8
		c1.4,0.5,2.9,0.7,4.3,0.7c5.4,0,10.5-3.4,12.4-8.8l2.4-6.8c5.7,1.2,11.7,1.9,18,1.9c4.1,0,8.1-0.3,11.9-0.8l3.5,7.2
		c2.3,4.7,6.9,7.4,11.8,7.4c1.9,0,3.9-0.4,5.7-1.3l7.6-3.7c6.5-3.2,9.2-11,6.1-17.5l-2.1-4.4c7.8-5.3,14.1-12,18.2-19.7h5.9
		c7.9,0,14.2-6.4,14.2-14.2v-9.2C182.9,100.7,176.5,94.3,168.7,94.3z M57.8,47.6c0-11.2,9.1-20.4,20.4-20.4
		c11.2,0,20.4,9.1,20.4,20.4c0,2.9-0.6,5.6-1.7,8.1c-11.5,0.4-22.3,3.1-31.7,7.5C60.7,59.5,57.8,53.9,57.8,47.6z M177.1,117.8
		c0,4.6-3.8,8.4-8.4,8.4h-5.9h-3.5l-1.7,3c-3.7,6.7-9.3,12.8-16.4,17.6l-4.1,2.8l2.2,4.5l2.1,4.4c1.7,3.6,0.2,8-3.4,9.7l-7.6,3.7
		c-1,0.5-2.1,0.7-3.2,0.7c-2.8,0-5.3-1.6-6.6-4.1l-3.5-7.2l-1.8-3.8l-4.2,0.6c-3.7,0.5-7.5,0.8-11.1,0.8c-5.6,0-11.3-0.6-16.7-1.8
		l-5-1.1l-1.7,4.9l-2.4,6.8c-1,2.9-3.8,4.9-6.9,4.9c-0.8,0-1.6-0.1-2.4-0.4l-8-2.8c-3.8-1.3-5.8-5.5-4.5-9.3l3.6-10.4l1.3-3.8
		l-3.1-2.6c-10.9-9.1-16.9-20.9-16.9-33.2c0-26.9,28.1-48.8,62.6-48.8c4.8,0,9.6,0.4,14.3,1.3l4,0.7l2.1-3.5c3.5-6,9.5-11,16.4-13.9
		c-1.2,4.9-1.8,10.3-1.9,20.3l0,3.3l2.9,1.7c10.6,6.3,18.5,15.2,22.3,25l1.4,3.7h4h3.1c4.6,0,8.4,3.8,8.4,8.4V117.8z"/>
	<path fill="#F7931E" d="M137.8,91.3c-4,0-7.3,3.3-7.3,7.3c0,4,3.3,7.3,7.3,7.3c4,0,7.3-3.3,7.3-7.3
		C145.1,94.5,141.8,91.3,137.8,91.3z"/>
</g>
</svg>
