<?xml version="1.0" encoding="utf-8"?>
<!-- Generator: Adobe Illustrator 18.1.1, SVG Export Plug-In . SVG Version: 6.00 Build 0)  -->
<!DOCTYPE svg PUBLIC "-//W3C//DTD SVG 1.1//EN" "http://www.w3.org/Graphics/SVG/1.1/DTD/svg11.dtd">
<svg version="1.1" id="Calque_1" xmlns="http://www.w3.org/2000/svg" xmlns:xlink="http://www.w3.org/1999/xlink" x="0px" y="0px"
	 viewBox="0 0 200 200" enable-background="new 0 0 200 200" xml:space="preserve">
<g>
	<g>
		<g>
			<path fill="#5AC4D4" d="M100.3,143.8L100.3,143.8c0.9,0,1.6-0.7,1.6-1.6l-0.2-15.3c0-0.9-0.7-1.6-1.6-1.6c0,0,0,0,0,0
				c-0.9,0-1.6,0.7-1.6,1.6l0.2,15.3C98.7,143.1,99.4,143.8,100.3,143.8z"/>
			<path fill="#5AC4D4" d="M105.5,143.6c0.2,0.1,0.4,0.1,0.7,0.1c0.6,0,1.2-0.3,1.4-0.9l6.4-13.9c0.4-0.8,0-1.7-0.8-2.1
				c-0.8-0.4-1.7,0-2.1,0.8l-6.4,13.9C104.3,142.3,104.6,143.2,105.5,143.6z"/>
			<path fill="#5AC4D4" d="M93,143c0.3,0.6,0.8,0.9,1.4,0.9c0.2,0,0.5,0,0.7-0.1c0.8-0.4,1.1-1.3,0.7-2.1l-6.8-13.8
				c-0.4-0.8-1.3-1.1-2.1-0.7c-0.8,0.4-1.1,1.3-0.7,2.1L93,143z"/>
		</g>
	</g>
</g>
<path fill="#5AC4D4" d="M119.6,92.7L154.4,0h-3.2h-5.6h-20h-8.8l-16.7,44.5L83.4,0h-6.9l33.5,89.5c-2.6-0.4-7.1-1-9.8-1
	c-4.1,0-9.9,1.3-13.6,2.2L52.7,0h-6.9l34.8,92.7c-16.4,7.4-27.8,23.9-27.8,43.1c0,26.1,21.2,47.3,47.3,47.3
	c26.1,0,47.3-21.2,47.3-47.3C147.4,116.7,136,100.2,119.6,92.7z M100.1,177.9c-23.2,0-42-18.8-42-42c0-23.2,18.8-42,42-42
	c23.2,0,42,18.8,42,42C142.1,159.1,123.3,177.8,100.1,177.9z"/>
</svg>
