<?xml version="1.0" encoding="utf-8"?>
<!-- Generator: Adobe Illustrator 18.1.1, SVG Export Plug-In . SVG Version: 6.00 Build 0)  -->
<!DOCTYPE svg PUBLIC "-//W3C//DTD SVG 1.1//EN" "http://www.w3.org/Graphics/SVG/1.1/DTD/svg11.dtd">
<svg version="1.1" id="Calque_1" xmlns="http://www.w3.org/2000/svg" xmlns:xlink="http://www.w3.org/1999/xlink" x="0px" y="0px"
	 viewBox="0 0 200 200" enable-background="new 0 0 200 200" xml:space="preserve">
<g id="Layer_1">
	<g>
		<path fill="#F15A24" d="M101.3,128.6c-15.9,0-29.1-13-29.1-29.1s13.1-29.1,29.1-29.1s29.1,13,29.1,29.1S117.3,128.6,101.3,128.6z
			 M101.3,72.8c-14.7,0-26.6,11.9-26.6,26.6s11.9,26.6,26.6,26.6s26.6-11.9,26.6-26.6S116,72.8,101.3,72.8z"/>
	</g>
	<g>
		<path fill="#F15A24" d="M101.3,141.4c-39.6,0-71-38.8-72.2-40.5l-1.3-1.6l1.3-1.6c1.3-1.4,32.7-40.2,72.2-40.2s71,38.8,72.2,40.5
			l1.3,1.6l-1.3,1.6C172.3,102.6,140.9,141.4,101.3,141.4z M34.1,99.5c6.3,7,34.2,37.1,67.2,37.1s61-30,67.2-37.1
			c-6.3-7-34.2-37.1-67.2-37.1C68.3,62.3,40.4,92.3,34.1,99.5z"/>
	</g>
	<g>
		<circle fill="#F15A24" cx="101.3" cy="99.5" r="9.4"/>
	</g>
	<g>
		<path fill="#F15A24" d="M101.3,113.6c-7.8,0-14.1-6.4-14.1-14.2s6.4-14.1,14.1-14.1c7.8,0,14.1,6.4,14.1,14.1
			C115.4,107.3,109.2,113.6,101.3,113.6z M101.3,87.8c-6.4,0-11.7,5.3-11.7,11.7s5.3,11.7,11.7,11.7s11.7-5.3,11.7-11.7
			S107.7,87.8,101.3,87.8z"/>
	</g>
	<g>
		<rect x="100.1" y="30.2" fill="#F15A24" width="2.3" height="19.2"/>
	</g>
	<g>
		<rect x="100.1" y="30.2" fill="#F15A24" width="2.3" height="19.2"/>
	</g>
	<g>
		
			<rect x="59.6" y="44.6" transform="matrix(-0.342 -0.9397 0.9397 -0.342 49.9142 126.4312)" fill="#F15A24" width="19.2" height="2.3"/>
	</g>
	<g>
		
			<rect x="131" y="36.1" transform="matrix(-0.9396 -0.3423 0.3423 -0.9396 240.7312 133.9742)" fill="#F15A24" width="2.3" height="19.2"/>
	</g>
	<g>
		<rect x="98.8" y="150.6" fill="#F15A24" width="2.3" height="19.2"/>
	</g>
	<g>
		<rect x="98.8" y="150.6" fill="#F15A24" width="2.3" height="19.2"/>
	</g>
	<g>
		
			<rect x="122.8" y="153.1" transform="matrix(-0.3421 -0.9397 0.9397 -0.3421 32.7544 331.4348)" fill="#F15A24" width="19.2" height="2.3"/>
	</g>
	<g>
		
			<rect x="67.9" y="144.6" transform="matrix(-0.9399 -0.3415 0.3415 -0.9399 81.2477 322.8042)" fill="#F15A24" width="2.3" height="19.2"/>
	</g>
</g>
</svg>
