<?xml version="1.0" encoding="utf-8"?>
<!-- Generator: Adobe Illustrator 18.1.1, SVG Export Plug-In . SVG Version: 6.00 Build 0)  -->
<!DOCTYPE svg PUBLIC "-//W3C//DTD SVG 1.1//EN" "http://www.w3.org/Graphics/SVG/1.1/DTD/svg11.dtd">
<svg version="1.1" id="Calque_1" xmlns="http://www.w3.org/2000/svg" xmlns:xlink="http://www.w3.org/1999/xlink" x="0px" y="0px"
	 viewBox="0 0 200 200" enable-background="new 0 0 200 200" xml:space="preserve">
<path d="M178.7,58h-53.5c-0.5-1-1.4-2.5-2.6-3.5c-2.4-2.1-5.9-2.5-10.2-2.5c0,0,0,0-0.2,0c-1.7-1-3.1-3.3-3.6-4.3
	c0.5-0.5,1-1.2,1.4-1.7c0.2-0.2,0.5-0.5,0.5-0.7c3.6-3.6,5.7-9,5.7-14.5c0-10.2-7.1-18.8-16.2-18.8c-9,0-15.9,8.5-15.9,19
	c0,5.7,2.1,10.9,5.9,14.7c0,0.2,0.2,0.2,0.5,0.5c0.5,0.5,0.9,1.2,1.4,1.7c-0.5,0.9-1.9,2.8-3.6,4.3c-4.3-0.5-7.6,0.8-10,3.1
	c-1.2,1-1.9,1.6-2.4,3.6H21.7c-1.4,0-2.7,0.4-2.7,1.8v12.4c0,1.4,1.3,1.8,2.7,1.8h54.2L78,98.6c0,0,0,0,0,0.2
	c1,14.3,3.7,35.9,3.7,37.3c0,0.5,0.3,0.7,0.3,1.2c0.9,7.1,3.6,20.2,4.5,26.1c-1.1,0-1.9,0.4-2.6,1c-0.7,0.6-1,1.5-1,2.6v17.3
	c0,1.9,1.4,3.7,3.5,3.7h27.8c2.1,0,4.7-1.5,4.7-3.7V167c0-1.9-2.1-3.3-4-3.6l2.9-13.3c0.2-1.9,1.1-9.5,2.1-14c0-0.2,0-0.2,0-0.5V133
	c0-6.4,1.7-23.1,2.6-34.7l1.9-23.3h53.7c1.4,0,1.8-0.4,1.8-1.8V60.6C181,59.4,179.9,58,178.7,58z M24,71v-8h50v0.6l0.6,1.8l0.6,5.6
	H24z M89.9,37.1c-0.8-2-1.2-4.1-1.2-6.2c0.2-7.6,5.2-13.8,11.4-13.8c6.2,0,11.4,6.2,11.4,14c0,4.3-1.7,8.6-4.3,11.2l-0.2,0.2
	l-0.5,0.5c-2.1,2.6-2.4,2.8-2.6,3.8c-0.2,2.4,2.1,5.3,4,7.2c-1.7,1.2-3.6,4-6.7,6h-1.2c-1.7-1-4.7-4.1-7.4-6c1.9-2.1,4-4.9,3.8-7.3
	c0-0.7-0.2-0.9-2.4-3.8l-0.5-0.2c0-0.2-0.2-0.2-0.5-0.5C91.8,40.8,90.6,39.1,89.9,37.1z M113,183H88v-15h25V183z M87.7,141H98v22
	h-6.2C90.8,159,88.9,148,87.7,141z M112.7,149.2l-2.8,13.8H103v-22h10.9C113.4,143,112.9,146.8,112.7,149.2z M114.6,134.1
	c0,0.5-0.2,0.9-0.2,1.9H103v-10.6c0-1.4-1.1-2.4-2.5-2.4c-1.4,0-2.5,0.9-2.5,2.4V136H86.8c0-1-0.2-1.5-0.2-2c0-0.2,0-0.6-0.2-0.6
	c-0.5-6.7-2.4-24.4-3.1-32.4h34.2C116.7,110,115,128.3,114.6,134.1z M121,73.2c0,0.2,0,0.2,0,0.5L117.9,97H83l-3.6-31.5L79.2,63
	c0-1,0.5-2.9,1.9-4.3c1.7-1.4,3.8-2.2,6.7-1.7c0.9,0.2,5.7,3.3,9.3,7.1c1.2,1.2,3.1,1.4,3.8,1.4c0.9,0,2.6-0.2,3.8-1.4
	c6.4-6.7,8.1-7.4,8.3-7.4c2.9-0.2,5,0.2,6.4,1.4c1,0.9,1.8,1.9,2,2.8L121,73.2z M176,71h-50.5l0.7-8H176V71z"/>
<polygon points="75.1,71 24,71 24,63 74,63 74,63.6 74.6,65.4 "/>
<polygon points="176,63 176,71 125.5,71 126.2,63 "/>
<rect x="88" y="168" fill="#FFFFFF" width="25" height="15"/>
</svg>
