<?xml version="1.0" encoding="utf-8"?>
<!-- Generator: Adobe Illustrator 18.1.1, SVG Export Plug-In . SVG Version: 6.00 Build 0)  -->
<!DOCTYPE svg PUBLIC "-//W3C//DTD SVG 1.1//EN" "http://www.w3.org/Graphics/SVG/1.1/DTD/svg11.dtd">
<svg version="1.1" id="Calque_1" xmlns="http://www.w3.org/2000/svg" xmlns:xlink="http://www.w3.org/1999/xlink" x="0px" y="0px"
	 viewBox="0 0 200 200" enable-background="new 0 0 200 200" xml:space="preserve">
<path d="M141.8,70.3H29.7c-1.4,0-2.6,1.1-2.6,2.6v101.6c0,13.3,10.8,24.1,24.1,24.1h69c13.3,0,24.1-10.8,24.1-24.1V72.9
	C144.4,71.5,143.2,70.3,141.8,70.3z M139.3,174.5c0,10.5-8.5,19-19,19h-69c-10.5,0-19-8.5-19-19V75.5h107V174.5z M116.4,8.8
	c-3.5,0-6.8,0.6-10.1,1.9c-6.3-6-14.5-9.3-23.3-9.3c-13.5,0-25.5,7.9-30.9,20c-3.6-2.4-7.8-3.7-12.2-3.7c-12.2,0-22,9.9-22,22
	c0,9.3,5.9,17.7,14.7,20.8c0.3,0.1,0.6,0.2,0.9,0.2c1.1,0,2-0.7,2.4-1.7c0.5-1.3-0.2-2.8-1.6-3.3c-6.7-2.4-11.3-8.8-11.3-16
	c0-9.3,7.6-16.9,16.9-16.9c4.3,0,8.4,1.7,11.6,4.7c0.6,0.6,1.5,0.8,2.4,0.6c0.9-0.2,1.5-0.9,1.8-1.7C59.6,14.4,70.6,6.5,83.1,6.5
	c7.9,0,15.4,3.2,20.9,9c0.8,0.8,1.9,1,2.9,0.6c3-1.4,6.3-2.1,9.6-2.1c12.6,0,22.8,10.2,22.8,22.8c0,3.7-0.9,7.4-2.6,10.6
	c-0.7,1.2-0.2,2.8,1.1,3.5c1.2,0.7,2.8,0.2,3.5-1.1c2.1-4,3.2-8.5,3.2-13C144.4,21.3,131.8,8.8,116.4,8.8z M169.4,82.2h-12.2
	c-1.4,0-2.6,1.1-2.6,2.6c0,1.4,1.1,2.6,2.6,2.6h12.2c5.5,0,10,4.5,10,10v51c0,5.5-4.5,10-10,10h-12.2c-1.4,0-2.6,1.1-2.6,2.6
	c0,1.4,1.1,2.6,2.6,2.6h12.2c8.3,0,15.1-6.8,15.1-15.1v-51C184.5,89,177.7,82.2,169.4,82.2z M52.1,183.5c5.8,0,10.4-4.7,10.4-10.4
	V95.9c0-5.8-4.7-10.4-10.4-10.4c-5.8,0-10.4,4.7-10.4,10.4v77.2C41.7,178.9,46.3,183.5,52.1,183.5z M46.8,95.9
	c0-2.9,2.4-5.3,5.3-5.3c2.9,0,5.3,2.4,5.3,5.3v77.2c0,2.9-2.4,5.3-5.3,5.3c-2.9,0-5.3-2.4-5.3-5.3V95.9z M84,183.5
	c5.8,0,10.4-4.7,10.4-10.4V95.9c0-5.8-4.7-10.4-10.4-10.4c-5.8,0-10.4,4.7-10.4,10.4v77.2C73.5,178.9,78.2,183.5,84,183.5z
	 M78.6,95.9c0-2.9,2.4-5.3,5.3-5.3s5.3,2.4,5.3,5.3v77.2c0,2.9-2.4,5.3-5.3,5.3c-2.9,0-5.3-2.4-5.3-5.3
	C78.6,173.1,78.6,95.9,78.6,95.9z M115.8,183.5c5.8,0,10.4-4.7,10.4-10.4V95.9c0-5.8-4.7-10.4-10.4-10.4c-5.8,0-10.4,4.7-10.4,10.4
	v77.2C105.4,178.9,110.1,183.5,115.8,183.5z M110.5,95.9c0-2.9,2.4-5.3,5.3-5.3c2.9,0,5.3,2.4,5.3,5.3v77.2c0,2.9-2.4,5.3-5.3,5.3
	c-2.9,0-5.3-2.4-5.3-5.3V95.9z"/>
</svg>
