<?xml version="1.0" encoding="utf-8"?>
<!-- Generator: Adobe Illustrator 18.1.1, SVG Export Plug-In . SVG Version: 6.00 Build 0)  -->
<!DOCTYPE svg PUBLIC "-//W3C//DTD SVG 1.1//EN" "http://www.w3.org/Graphics/SVG/1.1/DTD/svg11.dtd">
<svg version="1.1" id="Calque_1" xmlns="http://www.w3.org/2000/svg" xmlns:xlink="http://www.w3.org/1999/xlink" x="0px" y="0px"
	 viewBox="0 0 200 200" enable-background="new 0 0 200 200" xml:space="preserve">
<path d="M175.1,103.2c0,41.5-33.6,75.1-75.1,75.1s-75.1-33.6-75.1-75.1c0-41.5,33.6-75.1,75.1-75.1
	C141.5,28.1,175.1,61.8,175.1,103.2z M81.6,48.2c-17.5,0-31.7,14.2-31.7,31.7c0,17.5,14.2,31.7,31.7,31.7s31.7-14.2,31.7-31.7
	C113.3,62.4,99.1,48.2,81.6,48.2z M87.5,76.6c1.5,2.2,2.1,5,1.5,7.8c-1.2,5.4-6.5,8.9-12,7.7c-5.4-1.2-8.9-6.5-7.7-12
	c0.8-3.6,3.5-6.4,6.8-7.4c-0.3-1.1-0.3-2.2-0.1-3.3c0.9-3.9,4.7-6.4,8.6-5.5c3.9,0.9,6.4,4.7,5.5,8.6C89.8,74.2,88.8,75.6,87.5,76.6
	z M80.5,76.2c-3.4-0.7-6.7,1.4-7.4,4.8c-0.7,3.4,1.4,6.7,4.8,7.4c3.4,0.7,6.7-1.4,7.4-4.8C86,80.2,83.9,76.9,80.5,76.2z M84,66.6
	c-2-0.4-4,0.8-4.4,2.8c-0.4,2,0.9,3.9,2.9,4.4c2,0.4,4-0.8,4.4-2.8C87.4,69,86.1,67.1,84,66.6z"/>
</svg>
