<?xml version="1.0" encoding="utf-8"?>
<!-- Generator: Adobe Illustrator 18.1.1, SVG Export Plug-In . SVG Version: 6.00 Build 0)  -->
<!DOCTYPE svg PUBLIC "-//W3C//DTD SVG 1.1//EN" "http://www.w3.org/Graphics/SVG/1.1/DTD/svg11.dtd">
<svg version="1.1" id="Calque_1" xmlns="http://www.w3.org/2000/svg" xmlns:xlink="http://www.w3.org/1999/xlink" x="0px" y="0px"
	 viewBox="0 0 200 200" enable-background="new 0 0 200 200" xml:space="preserve">
<path d="M124.1,120.6c0,2.9-3.8,5.5-9.9,7.2c-5.8,1.7-13.8,2.7-22.6,2.7s-16.8-1-22.6-2.7c-6.1-1.7-9.9-4.3-9.9-7.2
	c0-2.9,3.8-5.5,9.9-7.2c5.8-1.7,13.8-2.7,22.6-2.7s16.8,1,22.5,2.7C120.3,115.1,124.1,117.7,124.1,120.6z M163,180.6
	c0,1.6,0,3.4,0,6.1c0,0.2,0,0.4-0.1,0.6c-0.5,1.6-3.7,4.6-7.4,7.1c-3.8,2.5-8.2,4.6-11.2,4.6c-0.6,0-1.1-0.1-1.5-0.2
	c-2.6-0.8-4.8-1.8-6.9-2.7c-4.9-2.1-9.1-4-16.3-2.2c-11.5,2.8-28,3.8-43.3,2C63.3,194.4,51.4,191,44,185c-4-3.2-6.1-6.5-6.8-9.6
	c-0.5-2.1-0.4-4.1,0.2-6c0.6-1.9,1.6-3.6,2.8-5.1c3-3.7,7.6-6.5,11.2-7.5c-0.3-1.8-1.2-4-2.2-6.7c-2.7-6.7-6.7-16.7-6.7-34
	c0-2.6,1.1-5.1,3.2-7.4c3.7-4.1,10.4-7.5,18.6-9.9c8.2-2.4,17.9-3.8,27.9-3.8c16.9,0,34.4,4.1,45.6,14.2c2.2,2,2.7,2,4,2.2
	c0.8,0.1,1.9,0.2,3.7,0.7c5.3,1.6,8.2,3.7,9.8,6.5c1.6,2.7,1.8,5.9,1.8,9.6c0,6.8-2.8,13.2-6.7,18.4c-4.1,5.5-9.6,9.5-14.6,11.2
	l8.3,7l2.6,0.7l0.2,0.1c0.1,0,0.3,0.1,0.4,0.1c1.8,0.5,3.5,1.2,5.2,2c1.1,0.4,2.2,0.9,3.5,1.4c1,0.4,1.8,0.6,2.5,0.9
	c2.3,0.8,3.5,1.2,4.1,2.8C163.1,174.2,163.1,176.3,163,180.6z M132.7,175.8l0,14.2c1.1,0.4,2.3,0.9,3.7,1.5c3.5,1.5,7.5,3.3,9.6,2.6
	c0.8-0.3,3.2-1.6,5.6-3.2c2.5-1.6,5.1-3.3,6.2-4.2c0.1-1.3,0.2-2.4,0.2-3.4c0.3-4.3,0.5-6.6-0.2-7.9c-0.7-1.3-2.4-2-6-3.4
	c-0.6-0.2-1.2-0.5-2.2-0.9c-4.8-1.9-6.2-1.3-13,1.7l-0.5,0.2c-1.1,0.5-1.8,0.7-2.2,0.9c-0.3,0.1-0.5,0.2-0.5,0.2
	c0,0-0.1,0.2-0.3,0.5C133.1,175,132.9,175.3,132.7,175.8z M144.4,135c-1.2,2.7-2.9,4.8-4.9,6.8c-4.4,4.5-5,6.2-6.8,11.5l-0.3,0.7
	c8.1-3.1,14.5-9.6,17.9-16.4c1.6-3.2,2.5-6.4,2.5-9.3c0.1-2.9-0.7-5.5-2.3-7.6c-1.9-2.4-5.2-4.1-9.9-4.7l-0.1,5.7l2.2,1.4l0,0
	c0.6,0.3,0.9,0.5,1.1,0.5c0.3,0.1,0.6,0.3,1.5,0.8l0.3,0.2l0,0.4C146.1,129.2,145.6,132.4,144.4,135z M128.3,172.2l0.5-0.2l8.5-3.5
	c0.1-0.1,0.3-0.2,0.5-0.3c0.3-0.2,0.6-0.4,0.8-0.5l0.7-0.5c-0.9-1.5-2.2-2.8-3.8-3.9c-1.8-1.2-4-2.2-6.4-2.7c-0.6,0.3-2,1.7-3.4,3.4
	l0,0c-2,2.4-3.9,5.1-4.1,5.8l-0.3,0.5c-2.1,1.7-2.5,3.2-3,4.7c-0.9,2.8-1.7,5.5-10.3,8.6c-6.6,2.4-17,3-25.9,1.5
	c-7.6-1.3-14.3-4.2-16.7-8.9c-0.8-1.6-1.2-2.7-1.5-3.6c-0.5-1.5-0.8-2.3-3.1-4.5c-1.8-1.7-2.6-2.9-3.4-4c-0.6-0.9-1.3-1.8-2.5-3
	c-0.6-0.3-1.1-0.4-1.8-0.3c-0.8,0.1-1.8,0.6-3.3,1.4c-4.3,2.3-6.9,5-8,7.6c-0.9,2.3-0.6,4.6,0.7,6.9c1.4,2.4,3.9,4.7,7.5,6.8
	c9.8,5.7,27.1,9.6,49.6,8.5c3.9-0.2,11.6-1,18.4-2.7c4.3-1,8.1-2.4,10.4-4.1l-0.1-12.5L128.3,172.2z M136.2,116.9
	c-0.4-2-1.1-3.6-2.2-4.9c-5.4-6.3-19.7-10.5-35.2-11.7c-10-0.8-20.4-0.3-29.3,1.7c-8.8,2-16,5.4-19.8,10.5c-2,2.7-3,5.9-2.6,9.7
	c0.6,7.5,1.9,14.2,4,20.4c2.1,6.2,4.9,12,8.8,17.7c1.7,2.5,1.8,2.6,2.7,3.3c0.4,0.4,1.1,0.9,2.1,1.8c3.1,2.8,3.6,5,4.1,6.9v0
	c0.5,1.9,0.9,3.4,4.5,5.3c4.7,2.4,10.1,3.6,15.6,3.7c6.5,0.2,13-0.9,18.5-2.8l0,0c2.6-0.8,4.3-1.9,5.3-3.5c1.1-1.6,1.7-3.7,2-6.5
	l0.1-0.6l0.6-0.1c0.8-0.2,1.7-0.7,2.7-1.6c4.2-3.6,9.5-12.5,13.3-22.2C135.2,134.3,137.6,123.8,136.2,116.9z"/>
</svg>
