<?xml version="1.0" encoding="utf-8"?>
<!-- Generator: Adobe Illustrator 18.1.1, SVG Export Plug-In . SVG Version: 6.00 Build 0)  -->
<!DOCTYPE svg PUBLIC "-//W3C//DTD SVG 1.1//EN" "http://www.w3.org/Graphics/SVG/1.1/DTD/svg11.dtd">
<svg version="1.1" id="Calque_1" xmlns="http://www.w3.org/2000/svg" xmlns:xlink="http://www.w3.org/1999/xlink" x="0px" y="0px"
	 viewBox="0 0 200 200" enable-background="new 0 0 200 200" xml:space="preserve">
<g>
	<path d="M182,76.2c-8.4,0-15.2,6.8-15.2,15.2v18.8H33.7V91.4c0-8.4-6.8-15.2-15.2-15.2S3.4,83,3.4,91.4v34
		c0,8.4,6.8,15.2,15.2,15.2h6v10c0,3.4,2.7,6.1,6.1,6.1c3.4,0,6.1-2.7,6.1-6.1v-10h127v10c0,3.4,2.7,6.1,6.1,6.1s6.1-2.7,6.1-6.1
		v-10h6c8.4,0,15.2-6.8,15.2-15.2v-34C197.1,83,190.3,76.2,182,76.2z"/>
	<path d="M41.9,91.4v10.7h54.3V49.8H53.5c-12.2,0-22.4,9.2-23.7,21.1C37,74.9,41.9,82.6,41.9,91.4z"/>
	<path d="M158.7,91.4c0-8.8,4.9-16.5,12.1-20.5c-1.4-11.9-11.5-21.1-23.7-21.1h-42.7v52.2h54.3V91.4z"/>
</g>
</svg>
