<?xml version="1.0" encoding="utf-8"?>
<!-- Generator: Adobe Illustrator 18.1.1, SVG Export Plug-In . SVG Version: 6.00 Build 0)  -->
<!DOCTYPE svg PUBLIC "-//W3C//DTD SVG 1.1//EN" "http://www.w3.org/Graphics/SVG/1.1/DTD/svg11.dtd">
<svg version="1.1" id="Calque_1" xmlns="http://www.w3.org/2000/svg" xmlns:xlink="http://www.w3.org/1999/xlink" x="0px" y="0px"
	 viewBox="0 0 200 200" enable-background="new 0 0 200 200" xml:space="preserve">
<path fill="#010101" d="M182.6,93.3h-21.9l9.8-7.5c2.5-1.9,3-5.6,1-8.1c-1.9-2.5-5.6-3-8.1-1l-21.5,16.6h-28l18.8-18.8
	c12-1.6,25.2-3.4,27.5-3.6c0.7,0,1.5-0.1,2.2-0.4c3-1.1,4.4-4.5,3.3-7.4c-1.7-4.3-4.9-3.9-10.8-3.1c-2.5,0.3-5.6,0.7-8.9,1.1
	l16.5-16.5c2.2-2.2,2.2-5.9,0-8.1c-2.2-2.2-5.9-2.2-8.1,0l-15.9,15.9l1.6-12.5c0.4-3.1-1.8-6-5-6.4c-3.1-0.4-6,1.8-6.4,5l-3.5,27.2
	l-19.4,19.4V58.3c7.3-9.5,15.1-19.7,16.6-21.5c0.5-0.5,1-1.1,1.3-1.9c1.3-2.9-0.1-6.3-3-7.6c-4.2-1.8-6.2,0.7-9.8,5.4
	c-1.4,1.8-3.2,4.2-5.1,6.6V16.4c0-3.2-2.6-5.7-5.7-5.7s-5.7,2.6-5.7,5.7v23.1l-8.1-10.4c-1.9-2.5-5.6-3-8.1-1c-2.5,1.9-3,5.6-1,8.1
	l17.2,22.2v26.8L74.8,65.7c-1.6-11.7-3.2-24-3.4-26.3c0-0.7-0.1-1.5-0.4-2.2c-1.2-3-4.5-4.4-7.4-3.3c-4.2,1.7-3.9,4.9-3.1,10.8
	c0.3,2.2,0.6,4.9,1,7.7L45.6,36.5c-2.2-2.2-5.9-2.2-8.1,0s-2.2,5.9,0,8.1l16.6,16.6l-13.7-1.7c-3.1-0.4-6,1.8-6.4,5
	c-0.4,3.1,1.8,6,5,6.4l28.4,3.6l18.7,18.7h-28C48.7,86.2,39,78.7,37.2,77.2c-0.5-0.5-1.1-1-1.8-1.3c-2.9-1.3-6.3,0-7.6,2.9
	C26,83,28.5,85,33.2,88.7c1.7,1.3,3.7,2.9,5.9,4.6H17.4c-3.2,0-5.7,2.6-5.7,5.7c0,3.2,2.6,5.7,5.7,5.7h23.3l-11.1,8.6
	c-2.5,1.9-3,5.6-1,8.1c1.1,1.5,2.8,2.2,4.5,2.2c1.2,0,2.5-0.4,3.5-1.2l22.8-17.7h26.7l-19.9,20c-11.7,1.6-24,3.2-26.3,3.4
	c-0.8-0.1-1.5,0.1-2.2,0.4c-3,1.2-4.4,4.5-3.3,7.4c1.7,4.2,4.9,3.8,10.8,3.1c2.2-0.3,4.9-0.6,7.7-1l-15.3,15.3
	c-2.2,2.2-2.2,5.9,0,8.1c1.1,1.1,2.6,1.7,4.1,1.7s2.9-0.6,4.1-1.7l16.1-16.1L60,159.1c-0.4,3.1,1.8,6,5,6.4c0.2,0,0.5,0,0.7,0
	c2.8,0,5.3-2.1,5.7-5l3.6-28.4l19.3-19.3v27.9c-7.3,9.5-15.1,19.7-16.6,21.5c-0.5,0.5-1,1.1-1.3,1.9c-1.3,2.9,0.1,6.3,3,7.6
	c0.9,0.4,1.7,0.6,2.5,0.6c2.7,0,4.5-2.4,7.3-6c1.4-1.8,3.2-4.2,5.1-6.6v21.9c0,3.2,2.6,5.7,5.7,5.7s5.7-2.6,5.7-5.7v-22.1l8.1,10.4
	c1.9,2.5,5.6,3,8.1,1c2.5-1.9,3-5.6,1-8.1l-17.2-22.2v-27.9l19.3,19.3c1.6,12,3.4,25.2,3.6,27.5c0,0.8,0.1,1.5,0.4,2.3
	c0.9,2.2,3.1,3.6,5.3,3.6c0.7,0,1.4-0.1,2.1-0.4c4.2-1.7,3.8-5.1,3.1-10.7c-0.3-2.5-0.7-5.6-1.1-8.9l16,15.9
	c1.1,1.1,2.6,1.7,4.1,1.7c1.5,0,2.9-0.6,4.1-1.7c2.2-2.2,2.2-5.9,0-8.1L147.1,138l12.5,1.6c3.1,0.4,6-1.8,6.4-5c0.4-3.1-1.8-6-5-6.4
	l-27.2-3.5l-19.9-19.9h26.7c9.7,7.4,20.4,15.6,22.2,17.1c0.5,0.5,1.2,1,1.9,1.3c0.7,0.3,1.5,0.5,2.3,0.5c2.2,0,4.3-1.3,5.3-3.5
	c1.8-4.2-0.8-6.2-5.4-9.8c-2-1.6-4.6-3.6-7.3-5.6h23.1c3.2,0,5.7-2.6,5.7-5.7C188.4,95.8,185.8,93.3,182.6,93.3z"/>
</svg>
