<?xml version="1.0" encoding="utf-8"?>
<!-- Generator: Adobe Illustrator 18.1.1, SVG Export Plug-In . SVG Version: 6.00 Build 0)  -->
<!DOCTYPE svg PUBLIC "-//W3C//DTD SVG 1.1//EN" "http://www.w3.org/Graphics/SVG/1.1/DTD/svg11.dtd">
<svg version="1.1" id="Calque_1" xmlns="http://www.w3.org/2000/svg" xmlns:xlink="http://www.w3.org/1999/xlink" x="0px" y="0px"
	 viewBox="0 0 200 200" enable-background="new 0 0 200 200" xml:space="preserve">
<g id="Layer_x0020_1">
	<path fill="#0A0B0C" d="M88.1,189.5c16.7,0.3,29.6,2.2,29.6,4.6c0,2.5-15.2,4.6-33.9,4.6c-18.7,0-33.9-2.1-33.9-4.6
		c0-2.4,12.9-4.3,29.6-4.6v-96L25.1,35h83.2c0-18.3,14.9-33.2,33.3-33.2c18.4,0,33.3,14.9,33.3,33.3c0,18.4-14.9,33.3-33.3,33.3
		c-8.6,0-16.4-3.2-22.2-8.5L88.1,93.5C88.1,93.5,88.1,189.5,88.1,189.5z M110.8,35h31.7l-2.1,2.3c0,0.1,0,0.2,0,0.4
		c-2.4,8.2-5.4,15.3-8,23c-0.3,0.9-0.8,1.5-1.5,1.4c-3.5-1-6-2.5-8.7-5.2l-1.1,1.2c5.5,4.9,12.7,7.9,20.6,7.9
		c17,0,30.8-13.8,30.8-30.8c0-17-13.8-30.8-30.8-30.8C124.6,4.3,110.8,18,110.8,35L110.8,35z M152.3,62.1c4.7-1.4,7.8-3.7,11.7-8.3
		c0.7-0.8,0.4-1.5-0.3-2.1c-6.4-4.8-13.2-9.4-20.2-14.5c-0.4-0.3-0.9-0.1-0.7,0.5c2.4,8.2,5.4,15.3,8,23
		C151.2,61.6,151.6,62.2,152.3,62.1L152.3,62.1z M130.8,8.1c-4.7,1.4-7.8,3.7-11.7,8.3c-0.7,0.8-0.4,1.5,0.3,2.1
		c6.4,4.8,13.2,9.4,20.2,14.5c0.4,0.3,0.9,0.1,0.7-0.5c-2.4-8.2-5.4-15.3-8-23C132,8.5,131.6,7.9,130.8,8.1L130.8,8.1z M152.2,8.1
		c4.7,1.4,7.8,3.7,11.7,8.3c0.7,0.8,0.4,1.5-0.3,2.1c-6.4,4.8-13.2,9.4-20.2,14.5c-0.4,0.3-0.9,0.1-0.7-0.5c2.4-8.2,5.4-15.3,8-23
		C151,8.5,151.5,7.9,152.2,8.1L152.2,8.1z M112.8,33.5c-0.2-4.9,1-8.6,4-13.8c0.5-0.9,1.3-0.9,2-0.4c6.6,4.5,13.3,9.4,20.3,14.3
		c0.4,0.3,0.3,0.8-0.3,0.8c-8.6,0.4-16.2,0-24.3,0C113.5,34.5,112.8,34.3,112.8,33.5L112.8,33.5z M170.9,36.6c0.2,4.9-1,8.6-4,13.8
		c-0.5,0.9-1.3,0.9-2,0.4c-6.6-4.5-13.3-9.4-20.3-14.3c-0.4-0.3-0.3-0.8,0.3-0.8c8.6-0.4,16.2,0,24.3,0
		C170.1,35.6,170.8,35.9,170.9,36.6L170.9,36.6z M170.9,33.5c0.2-4.9-1-8.6-4-13.8c-0.5-0.9-1.3-0.9-2-0.4
		c-6.6,4.5-13.3,9.4-20.3,14.3c-0.4,0.3-0.3,0.8,0.3,0.8c8.6,0.4,16.2,0,24.3,0C170.1,34.5,170.8,34.3,170.9,33.5L170.9,33.5z
		 M134.2,63c4.6,1.7,8.5,1.6,14.4,0.3c1.1-0.2,1.2-1,1-1.8c-2.3-7.6-5-15.5-7.6-23.7c-0.2-0.5-0.7-0.6-0.9,0c-3,8-4.8,15.5-7.3,23.2
		C133.5,62,133.5,62.7,134.2,63L134.2,63z M134.2,7.1c4.6-1.7,8.5-1.6,14.4-0.3c1.1,0.2,1.2,1,1,1.8c-2.3,7.6-5,15.5-7.6,23.7
		c-0.2,0.5-0.7,0.6-0.9,0c-3-8-4.8-15.5-7.3-23.2C133.5,8.1,133.5,7.4,134.2,7.1L134.2,7.1z M69.2,50.7c0.7,0,1.3,0.6,1.3,1.3
		s-0.6,1.3-1.3,1.3c-0.7,0-1.3-0.6-1.3-1.3S68.5,50.7,69.2,50.7z M77.5,53.2c1.2,0,2.2,1,2.2,2.2c0,1.2-1,2.2-2.2,2.2
		c-1.2,0-2.2-1-2.2-2.2C75.3,54.2,76.3,53.2,77.5,53.2z M75.4,41.5c1.8,0,3.3,1.5,3.3,3.3c0,1.8-1.5,3.3-3.3,3.3
		c-1.8,0-3.3-1.5-3.3-3.3C72.1,43,73.6,41.5,75.4,41.5z M65.1,39.4c-0.2,1.6-1.6,2.8-3.3,2.8c-1.6,0-3-1.2-3.3-2.8H36.3l47.5,49.6
		l0,0l47.5-49.6H65.1L65.1,39.4z M66.4,59.5c1.2,0,2.2,1,2.2,2.2c0,1.2-1,2.2-2.2,2.2c-1.2,0-2.2-1-2.2-2.2
		C64.2,60.5,65.1,59.5,66.4,59.5z M73.8,65.3c0.9,0,1.6,0.7,1.6,1.6c0,0.9-0.7,1.6-1.6,1.6c-0.9,0-1.6-0.7-1.6-1.6
		C72.2,66.1,72.9,65.3,73.8,65.3z"/>
</g>
</svg>
