<?xml version="1.0" encoding="utf-8"?>
<!-- Generator: Adobe Illustrator 18.1.1, SVG Export Plug-In . SVG Version: 6.00 Build 0)  -->
<!DOCTYPE svg PUBLIC "-//W3C//DTD SVG 1.1//EN" "http://www.w3.org/Graphics/SVG/1.1/DTD/svg11.dtd">
<svg version="1.1" id="Calque_1" xmlns="http://www.w3.org/2000/svg" xmlns:xlink="http://www.w3.org/1999/xlink" x="0px" y="0px"
	 viewBox="0 0 200 200" enable-background="new 0 0 200 200" xml:space="preserve">
<path id="Warning_1_" d="M188.4,161.6L107.7,21.8c-1.8-2.3-4.7-4.1-7.6-4.1s-5.8,1.8-7.6,4.1L10.6,162.2c-1.8,2.9-1.8,5.8,0,8.8
	c1.8,2.9,4.7,4.7,7.6,4.7h163.8l0,0c4.7,0,8.8-4.1,8.8-8.8C190.7,164.5,189.6,162.8,188.4,161.6z M33.4,158.1l66.7-114l66.7,114
	H33.4z M100.7,125.3c-6.4,0-10.5,4.7-10.5,10.5s4.1,10.5,10.5,10.5c6.4,0,10.5-4.7,10.5-10.5C110.6,129.4,106.5,125.3,100.7,125.3z
	 M93.6,119.5h13.5l2.3-37.4H90.7L93.6,119.5z"/>
</svg>
