<?xml version="1.0" encoding="utf-8"?>
<!-- Generator: Adobe Illustrator 18.1.1, SVG Export Plug-In . SVG Version: 6.00 Build 0)  -->
<!DOCTYPE svg PUBLIC "-//W3C//DTD SVG 1.1//EN" "http://www.w3.org/Graphics/SVG/1.1/DTD/svg11.dtd">
<svg version="1.1" id="Calque_1" xmlns="http://www.w3.org/2000/svg" xmlns:xlink="http://www.w3.org/1999/xlink" x="0px" y="0px"
	 viewBox="0 0 200 200" enable-background="new 0 0 200 200" xml:space="preserve">
<g>
	<polygon points="179.5,27.7 179.5,84.1 63.8,96.3 63.8,121.5 68.9,121.5 70.1,178.8 77.1,178.8 78.4,121.5 179.5,121.5 
		184.3,121.5 185.6,178.8 192.6,178.8 193.8,121.5 200,121.5 200,81.9 200,27.7 	"/>
	<g>
		<path d="M55.2,49.8C63,46.6,66.7,37.7,63.4,30c-3.2-7.7-12.1-11.4-19.8-8.2c-7.8,3.2-11.4,12.1-8.2,19.8
			C38.6,49.3,47.5,53,55.2,49.8z"/>
		<path d="M52.2,86l-4.9-24.6l-0.2,0c-1.2-3.3-3.7-6-7.2-7.5c-6.6-2.6-14.1,0.6-16.7,7.2L8,99.1c-0.7,1.8-1,3.7-0.9,5.5l0,0
			l1.7,30.8l-7.2,40.3l11.8,2.7l11.3-40.5c0.2-0.7,0.2-1.5,0.2-2.2l-0.4-6.9l1.7,5.7l1.6,44.8l13.9,0.1l0.5-46.2
			c0-0.7-0.1-1.5-0.3-2.2l-8.1-27.4L38.5,92c-0.1-0.2-0.1-0.4-0.2-0.6l-1.9-18.9L40.1,91c0.3,1.6,1.3,3.1,2.7,4l23.5,14.2l5.5-7.9
			L52.2,86z"/>
	</g>
</g>
<polygon fill="#FFFFFF" points="73.8,99.3 179,93.8 179,89 "/>
</svg>
