<?xml version="1.0" encoding="utf-8"?>
<!-- Generator: Adobe Illustrator 18.1.1, SVG Export Plug-In . SVG Version: 6.00 Build 0)  -->
<!DOCTYPE svg PUBLIC "-//W3C//DTD SVG 1.1//EN" "http://www.w3.org/Graphics/SVG/1.1/DTD/svg11.dtd">
<svg version="1.1" id="Calque_1" xmlns="http://www.w3.org/2000/svg" xmlns:xlink="http://www.w3.org/1999/xlink" x="0px" y="0px"
	 viewBox="0 0 200 200" enable-background="new 0 0 200 200" xml:space="preserve">
<g id="Layer_x0020_1">
	<path d="M109.6,83.3c-4.6,3.1-8.9,6.3-12.9,9.6c-10.1,8.3-19.8,14.1-23.6,16c-8.7,4.6-13.7,4.4-13.3-2.7c1.8-16.4,1.5-31-2.2-42.3
		c-3.1-6.5-46.6-7.1-50.8,0c-4.2,12.6-5.9,30.4,0,54.4c5.7,23.3,21.2,28.5,38.7,29.3c23.8,1.1,54.3-17.2,68.8-32.9
		c6.2-6.7,9-10,11-11.9C120.9,95.7,115.6,89.2,109.6,83.3z M32.4,64.7c-9.4,0-17-0.8-17-1.7c0-0.9,7.6-1.7,17-1.7s17,0.8,17,1.7
		C49.4,63.9,41.8,64.7,32.4,64.7z M187.3,63.4c-28.8-4.4-53.9,4.9-73.9,17.4c5.8,5.2,11,11.3,15.7,18.5c0.7-0.8,1.6-1.7,2.8-3.2
		c17.9-19.8,38.1-24.9,59.4-23.4C202.8,76.2,197.3,55.5,187.3,63.4z"/>
	<path fill="#FFFFFF" d="M48.4,63c0,1-7.6,1.7-17,1.7s-17-0.8-17-1.7c0-0.9,7.6-1.7,17-1.7S48.4,62,48.4,63z"/>
</g>
</svg>
