<?xml version="1.0" encoding="utf-8"?>
<!-- Generator: Adobe Illustrator 18.1.1, SVG Export Plug-In . SVG Version: 6.00 Build 0)  -->
<!DOCTYPE svg PUBLIC "-//W3C//DTD SVG 1.1//EN" "http://www.w3.org/Graphics/SVG/1.1/DTD/svg11.dtd">
<svg version="1.1" id="Calque_1" xmlns="http://www.w3.org/2000/svg" xmlns:xlink="http://www.w3.org/1999/xlink" x="0px" y="0px"
	 viewBox="0 0 200 200" enable-background="new 0 0 200 200" xml:space="preserve">
<path d="M101.2,87.7c0,3.8,0,7.1,0,10.9c1.6,0,2.8,0,4.1,0c9.8,0,19.6,0.1,29.5,0c4.3-0.1,7.3,1.6,9.4,5.4
	c7.4,12.9,14.9,25.7,22.2,38.5c0.8,1.5,1.5,3.2,1.7,4.9c0.5,3.6-1.1,6.4-4.3,8.1c-2.8,1.5-6.6,0.8-9.1-1.6c-1.1-1.1-1.9-2.3-2.7-3.6
	c-5.3-9.2-10.7-18.4-15.9-27.6c-1.1-2-2.4-2.7-4.7-2.7c-13.6,0.1-27.1,0.1-40.7,0c-10.5,0-15.6-4.5-16.3-15
	c-0.9-13.3-1.7-26.6-2.3-39.9c-0.4-8,5.1-14.3,12.4-14.7c7.9-0.5,14,4.9,14.7,13.2c0.3,3.7,0.6,7.4,0.9,11.5c7.7,0,15.3,0,22.9,0
	c1.5,0,3.1,0,4.5,0.3c3.4,0.7,5.4,3.4,5.2,6.5c-0.3,3.2-2.5,5.6-6,5.8c-5.5,0.2-11,0.1-16.5,0.1C107.3,87.7,104.2,87.7,101.2,87.7z"
	/>
<path d="M134.6,135.7c2.4,4.1,4.5,7.6,6.4,11.2c0.4,0.8,0.2,2.3-0.2,3.2c-10.7,22.2-36.3,34-60.2,27.8
	c-24.4-6.3-40.9-28.7-39.6-53.6c0.9-17.2,8.6-30.7,22.5-40.8c0.5-0.4,1.1-0.7,2.1-1.2c0.2,4,0.6,7.6,0.6,11.2c0,1.2-1,2.5-1.9,3.4
	c-22.2,22.2-13.6,59.4,16.1,69.5c21.9,7.4,46-5,52.9-27.1C133.7,138.3,134,137.3,134.6,135.7z"/>
<path d="M84.5,19.5c7.9-0.1,14.1,6,14.1,13.8c0,7.7-6.3,14.1-14,14.1c-7.5,0-13.9-6.3-14-13.8C70.5,26,76.8,19.6,84.5,19.5z"/>
</svg>
