<?xml version="1.0" encoding="utf-8"?>
<!-- Generator: Adobe Illustrator 18.1.1, SVG Export Plug-In . SVG Version: 6.00 Build 0)  -->
<!DOCTYPE svg PUBLIC "-//W3C//DTD SVG 1.1//EN" "http://www.w3.org/Graphics/SVG/1.1/DTD/svg11.dtd">
<svg version="1.1" id="Calque_1" xmlns="http://www.w3.org/2000/svg" xmlns:xlink="http://www.w3.org/1999/xlink" x="0px" y="0px"
	 viewBox="0 0 200 200" enable-background="new 0 0 200 200" xml:space="preserve">
<g>
	<path d="M150.8,85.4c5.6-5.3,8.5-11.9,8.5-19.7s-2.8-14.7-8.5-20.1c-5.3-5.6-11.9-8.1-19.7-8.1c-8.1,0-15,2.5-20.4,8.1
		c-5,5-7.8,11.3-8.1,18.5H88.7L77.4,29v0.3c-0.3-1.9-1.6-3.4-3.8-5.3L41.4,2c-0.3-0.3-0.6-0.3-0.9-0.3c-0.6,0-0.9,0.3-1.3,0.6
		c0,0.6-0.3,0.9-0.3,1.3l0.6,8.5c0,0.3,0.3,0.6,0.3,0.6c0,0.3,0.3,0.3,0.6,0.6l27.3,18.2l10.7,32.6l-18.2-0.3l-0.3,0.3
		c-0.6,0.3-0.6,0.3-0.6,0.6c-0.3,0.3-0.3,0.6-0.3,0.9L72.7,192c0.3,4.4,2.8,6.6,7.2,7.2h34.8c0.3,0,0.3,0,0.3,0
		c4.7-0.6,6.9-2.8,7.2-7.2l10.7-98.1C140.1,93.3,145.7,90.8,150.8,85.4L150.8,85.4z M156.1,65.7c0,6.9-2.8,12.9-7.5,17.6
		c-4.7,5-10.7,7.5-17.6,7.5c-7.2,0-13.5-2.5-18.2-7.5c-4.7-4.7-7.2-10.7-7.2-17.6c0-7.2,2.5-13.2,7.2-18.2c4.7-4.7,11-6.9,18.2-6.9
		c6.9,0,12.9,2.2,17.6,6.9C153.3,52.5,156.1,58.5,156.1,65.7z M70.5,29.9c-0.3-0.3-0.6-0.6-0.9-0.9l-27-17.9l-0.3-4.7l29.8,20.4
		c0.9,0.9,1.9,1.9,2.2,3.1h0.3l42.9,130.4l-1.3,8.8L82.1,65.7c0-0.3,0-0.6,0-0.6L70.5,29.9z M94,150.6c-0.6-0.9-0.9-1.9-0.9-2.8
		c0-1.3,0.3-2.2,0.9-3.1c0.9-0.6,2.2-1.3,3.1-1.3c0.9,0,2.2,0.6,2.8,1.3c0.9,0.9,1.3,1.9,1.3,3.1c0,0.9-0.3,1.9-1.3,2.8
		c-0.6,0.6-1.9,0.9-2.8,0.9C96.2,151.6,95,151.2,94,150.6z M109.7,164.4c1.3,1.3,1.6,2.5,1.6,4.1c0,1.3-0.3,2.5-1.6,3.4
		c-0.6,0.9-2.2,1.3-3.4,1.3c-1.6,0-2.8-0.3-3.8-1.3c-0.9-0.9-1.3-2.2-1.3-3.4c0-1.6,0.3-2.8,1.3-4.1c0.9-0.9,2.2-1.3,3.8-1.3
		C107.5,163.2,109.1,163.5,109.7,164.4z M95,165c-0.9,0-1.9-0.6-2.5-1.3c-0.6-0.3-0.9-1.3-0.9-2.5c0-0.9,0.3-1.6,0.9-2.2
		c0.6-0.6,1.6-0.9,2.5-0.9c0.9,0,1.6,0.3,2.2,0.9c0.9,0.6,0.9,1.3,0.9,2.2c0,1.3,0,2.2-0.9,2.5C96.5,164.4,95.9,165,95,165z
		 M89.9,67.2h12.5c0.3,6.9,3.1,13.2,8.1,18.2c5.3,5.6,11.6,8.5,18.8,8.5l-10.3,97.8l0,0c-0.3,2.5-1.9,4.1-4.7,4.4H80.5
		c-2.8-0.3-4.4-1.9-4.7-4.4l0,0L62.4,66.9l16.9,0.3l11.3,34.5H68.9l9.4,83.1c0,3.4,1.9,5,5.6,5.6h27c3.4-0.6,5.6-2.2,5.6-5.6
		l9.4-83.1l-24.4-0.3L89.9,67.2z"/>
	<path d="M148.2,81.4c3.8-4.1,6-9.1,6.3-14.7h-20.7L148.2,81.4z"/>
	<path d="M154.5,64.1c-0.3-5.6-2.5-10.3-6.3-14.7l-15,14.7H154.5z"/>
	<path d="M113.1,49.7c-4.1,4.1-6,8.8-6,14.4h20.7L113.1,49.7z"/>
	<path d="M131.9,62.2l14.4-14.7c-4.1-3.4-9.1-5.3-14.4-5.3C131.9,42.2,131.9,62.2,131.9,62.2z"/>
	<path d="M129.4,62.5V42.2c-5.6,0-10.3,1.9-14.4,5.3L129.4,62.5z"/>
	<path d="M127.6,66.6h-20.4c0,5.6,1.9,10.7,6,14.7L127.6,66.6z"/>
	<path d="M131.9,89.2c5.3-0.6,10.3-2.5,14.4-6.3l-14.4-14.1V89.2z"/>
	<path d="M115,82.9c4.1,3.8,8.8,5.6,14.4,6.3v-21L115,82.9z"/>
</g>
</svg>
