<?xml version="1.0" encoding="utf-8"?>
<!-- Generator: Adobe Illustrator 18.1.1, SVG Export Plug-In . SVG Version: 6.00 Build 0)  -->
<!DOCTYPE svg PUBLIC "-//W3C//DTD SVG 1.1//EN" "http://www.w3.org/Graphics/SVG/1.1/DTD/svg11.dtd">
<svg version="1.1" id="Calque_1" xmlns="http://www.w3.org/2000/svg" xmlns:xlink="http://www.w3.org/1999/xlink" x="0px" y="0px"
	 viewBox="0 0 200 200" enable-background="new 0 0 200 200" xml:space="preserve">
<g>
	<g>
		<path d="M100.7,120.3V67.1h97.6l-98.7-47l-97.9,47h95v53.1H63.8H44.4v4h24.9l27.4,5.7v47.9h4v-47.9l27.4-5.7h26.4v-4h-21H100.7z"
			/>
		<g>
			<polygon points="35.4,144.3 28.5,144.3 28.5,148.3 33.7,148.3 22.9,177.9 27.4,177.9 38.2,148.3 38,148.3 60.2,148.3 60.2,177.9 
				64.2,177.9 64.2,148.3 72,148.3 72,144.3 39.5,144.3 36.6,134 35.6,130 25.1,91.4 21,91.4 			"/>
			<g>
				<polygon points="163.2,144.3 170,144.3 170,148.3 164.9,148.3 175.7,177.9 171.2,177.9 160.4,148.3 160.5,148.3 138.4,148.3 
					138.4,177.9 134.4,177.9 134.4,148.3 126.6,148.3 126.6,144.3 159.1,144.3 161.9,134 163,130 173.5,91.4 177.6,91.4 				"/>
			</g>
		</g>
	</g>
	<path d="M77,146c0,3-48.9,3-48.9,0c0-4,10.9-6,24.4-6S77,142,77,146z"/>
	<path d="M173,146c0,3-48.9,3-48.9,0c0-4,10.9-6,24.4-6S173,142,173,146z"/>
	<ellipse transform="matrix(0.9707 -0.2404 0.2404 0.9707 -21.8409 8.9695)" cx="25.8" cy="94" rx="4.3" ry="8"/>
	<ellipse transform="matrix(-0.9707 -0.2404 0.2404 -0.9707 319.9884 227.0436)" cx="173.8" cy="94" rx="4.3" ry="8"/>
</g>
</svg>
