<?xml version="1.0" encoding="utf-8"?>
<!-- Generator: Adobe Illustrator 18.1.1, SVG Export Plug-In . SVG Version: 6.00 Build 0)  -->
<!DOCTYPE svg PUBLIC "-//W3C//DTD SVG 1.1//EN" "http://www.w3.org/Graphics/SVG/1.1/DTD/svg11.dtd">
<svg version="1.1" id="Calque_1" xmlns="http://www.w3.org/2000/svg" xmlns:xlink="http://www.w3.org/1999/xlink" x="0px" y="0px"
	 viewBox="0 0 200 200" enable-background="new 0 0 200 200" xml:space="preserve">
<g id="Your_Icon">
	<g>
		<path d="M-633,15.4c2.1,0,4.3,0,5.1,0.1c3.8,0.2,3.3,20.9,7,21.6c3.4,0.7,16.3,5.3,19.3,7c0.2,0.1,0.4,0.2,0.6,0.2
			c3.8,0,14.2-12.5,17.9-12.5c0.3,0,0.5,0.1,0.7,0.2c1.4,1,6.7,5.4,7.9,6.6c2.7,2.7-10.8,18-8.6,21c2.1,2.7,9.2,14.5,10.3,17.8
			c0.4,1.3,3.5,1.6,7.2,1.6c2.6,0,5.6-0.1,8.3-0.1c3.8,0,6.8,0.3,7.1,1.7c0.3,1.7,1.6,8.4,1.8,10.1c0.3,3.8-19.9,6.8-20.1,10.6
			c-0.2,3.4-2.3,17-3.6,20.2c-1.4,3.5,17,13.5,15.2,16.8c-0.8,1.5-4.2,7.5-5.1,8.9c-0.3,0.4-0.8,0.6-1.5,0.6
			c-4.2,0-14.9-5.8-19.2-5.8c-0.7,0-1.2,0.1-1.5,0.5c-2.3,2.5-12.8,11.5-15.7,13.2c-3.3,1.9,4.3,21.2,0.8,22.7c-1.6,0.7-8,3-9.7,3.5
			c-0.1,0-0.2,0-0.3,0c-3.6,0-9.8-18-13.5-18c-0.1,0-0.1,0-0.2,0c-1.7,0.3-6,0.4-10.3,0.4c-4.3,0-8.6-0.1-10.3-0.4
			c-0.1,0-0.1,0-0.2,0c-3.7,0-9.9,18-13.5,18c-0.1,0-0.2,0-0.3,0c-1.6-0.5-8.1-2.9-9.6-3.5c-3.5-1.5,4.1-20.8,0.8-22.7
			c-3-1.7-13.4-10.7-15.7-13.2c-0.3-0.3-0.8-0.5-1.5-0.5c-4.3,0-15,5.8-19.2,5.8c-0.7,0-1.3-0.2-1.5-0.6c-1-1.4-4.3-7.4-5.1-8.9
			c-1.8-3.3,16.6-13.3,15.2-16.8c-1.2-3.2-3.4-16.8-3.6-20.2c-0.2-3.8-20.4-6.9-20.1-10.6c0.1-1.7,1.4-8.4,1.8-10.1
			c0.3-1.4,3.3-1.7,7.1-1.7c2.6,0,5.6,0.1,8.3,0.1c3.7,0,6.7-0.3,7.2-1.6c1.1-3.2,8.2-15.1,10.3-17.8c2.3-3-11.2-18.4-8.6-21
			c1.2-1.2,6.5-5.6,7.9-6.6c0.2-0.2,0.4-0.2,0.7-0.2c3.7,0,14.1,12.5,17.9,12.5c0.2,0,0.5,0,0.6-0.2c3-1.7,15.9-6.4,19.3-7
			c3.7-0.7,3.2-21.4,7-21.6C-637.3,15.5-635.2,15.4-633,15.4 M-633,2c-1.6,0-4.5,0-6,0.1c-3.3,0.2-11.2,1.9-14.3,13.3
			c-0.7,2.7-1.2,5.8-1.7,8.8c-0.1,0.5-0.2,1.2-0.3,1.9c-2.7,0.9-5.7,2-8.5,3.1c-0.5-0.4-1-0.9-1.4-1.2c-5.8-5.1-10.9-9.6-17.8-9.6
			c-3.3,0-6.4,1-8.9,3c-1,0.8-7.1,5.7-9.1,7.7c-2.3,2.3-7.1,8.7-2.2,19.3c1.2,2.6,2.8,5.2,4.4,7.8c0.3,0.5,0.6,1.1,1,1.7
			c-1.5,2.4-3.1,5.2-4.6,7.8c-0.6,0-1.2,0-1.8,0c-1.5,0-3-0.1-4.5-0.1c-3.1,0-5.4,0.2-7.4,0.6c-10.1,1.9-12.4,9.5-12.9,11.8
			c0,0.1-1.8,8.7-2,11.7c-0.3,4,0.6,11.3,10.7,16c2.6,1.2,5.5,2.2,8.4,3.2c0.5,0.2,1.2,0.4,1.8,0.6c0.4,2.8,0.9,5.9,1.5,8.9
			c-0.5,0.4-1,0.8-1.5,1.2c-2.4,1.9-4.8,3.8-6.8,5.9c-8.6,8.6-5.8,16.4-4.2,19.4c0,0.1,4.2,7.7,6,10.2c2.8,4,7.4,6.3,12.6,6.3
			c4.6,0,9.4-1.9,14.4-3.8c0.5-0.2,1.2-0.5,1.8-0.7c2.1,1.9,4.6,4,6.9,5.8c-0.1,0.7-0.3,1.3-0.4,1.8c-0.6,3-1.2,6-1.5,8.9
			c-1,11.9,6,16.2,9.1,17.5c1.7,0.7,8.7,3.3,11.1,4c1.3,0.4,2.7,0.6,4,0.6c9.8,0,14.4-8.5,18.5-16c0.3-0.5,0.6-1.1,0.9-1.7
			c1.6,0,3.1,0,4.5,0s2.9,0,4.5,0c0.3,0.6,0.7,1.2,0.9,1.7c4.1,7.5,8.7,16,18.5,16c1.4,0,2.7-0.2,4-0.6c2.4-0.7,9.5-3.3,11.1-4
			c3.1-1.3,10.1-5.6,9.1-17.5c-0.2-2.8-0.9-5.9-1.5-8.9c-0.1-0.5-0.2-1.2-0.4-1.8c2.3-1.8,4.7-3.9,6.9-5.8c0.7,0.3,1.3,0.5,1.8,0.7
			c5,2,9.8,3.8,14.4,3.8c5.2,0,9.8-2.3,12.6-6.3c1.8-2.5,5.9-10.2,6-10.3c1.6-3,4.4-10.8-4.2-19.4c-2-2-4.5-4-6.8-5.9
			c-0.4-0.3-0.9-0.7-1.5-1.2c0.6-2.9,1.1-6.1,1.5-8.9c0.7-0.2,1.3-0.5,1.8-0.6c2.9-1,5.8-2,8.4-3.2c10.1-4.7,11-12.1,10.7-16
			c-0.3-3-2-11.7-2-11.7c-0.5-2.3-2.8-9.9-12.9-11.8c-2-0.4-4.3-0.6-7.4-0.6c-1.4,0-2.9,0-4.5,0.1c-0.6,0-1.2,0-1.8,0
			c-1.4-2.6-3.1-5.4-4.6-7.8c0.4-0.6,0.7-1.2,1-1.7c1.6-2.6,3.2-5.2,4.4-7.8c1.6-3.5,4.7-12.5-2.2-19.3c-2-2-8.1-6.9-9.1-7.7
			c-2.6-2-5.7-3-8.9-3c-6.9,0-12,4.4-17.8,9.6c-0.4,0.4-0.9,0.8-1.4,1.2c-2.7-1.1-5.7-2.2-8.5-3.1c-0.1-0.7-0.2-1.3-0.3-1.9
			c-0.5-3-0.9-6.1-1.7-8.8c-3.1-11.4-11-13.1-14.3-13.3C-628.5,2-631.4,2-633,2L-633,2z"/>
	</g>
	<g>
		<path d="M-633,141c-23.3,0-42.3-19-42.3-42.3s19-42.3,42.3-42.3c23.3,0,42.3,19,42.3,42.3C-590.8,122-609.7,141-633,141z
			 M-633,69.9c-15.9,0-28.8,12.9-28.8,28.8c0,15.9,12.9,28.8,28.8,28.8c15.9,0,28.8-12.9,28.8-28.8C-604.2,82.9-617.1,69.9-633,69.9
			z"/>
	</g>
</g>
<path d="M-294.9,54.7v25.1v90.8c0,15.2-12.4,27.2-27.2,27.2h-138.5c-15.2,0-27.2-12.4-27.2-27.2V79.7V54.7
	c0-15.2,12.4-27.2,27.2-27.2h9.2V38v15.9c0,11,8.8,19.8,19.8,19.8s19.8-8.8,19.8-19.8V38V27.4h43.1V38v15.9c0,11,8.8,19.8,19.8,19.8
	c11,0,19.8-8.8,19.8-19.8V38V27.4h7.4C-307.3,27.4-294.9,39.5-294.9,54.7z M-303,77.3h-176.7v93.3c0,10.6,8.5,19.1,19.1,19.1h138.5
	c10.6,0,19.1-8.5,19.1-19.1V77.3z M-431.7,66c6.7,0,12-5.3,12-12V38V27.4V14c0-6.7-5.3-12-12-12c-6.7,0-12,5.3-12,12v13.4V38v15.9
	C-443.7,60.7-438.4,66-431.7,66z M-349,66c6.7,0,12-5.3,12-12V38V27.4V14c0-6.7-5.3-12-12-12c-6.7,0-12,5.3-12,12v13.4V38v15.9
	C-361.3,60.7-355.7,66-349,66z M-347.2,102.7c-3.5-3.5-9.5-3.5-13.1,0l-43.1,42.8l-19.1-19.1c-3.5-3.5-9.5-3.5-13.1,0
	c-3.5,3.5-3.5,9.5,0,13.1l25.4,25.4c1.8,1.8,4.2,2.8,6.4,2.8c2.1,0,4.6-1.1,6.4-2.8l49.5-49.5C-343.7,111.9-343.7,106.2-347.2,102.7
	z"/>
<g>
	<line fill="none" stroke="#FFFFFF" stroke-width="8" stroke-miterlimit="10" x1="-121.8" y1="155.2" x2="-177.6" y2="97.6"/>
	<line fill="none" stroke="#FFFFFF" stroke-width="8" stroke-miterlimit="10" x1="-177.2" y1="102.8" x2="-119.8" y2="46.5"/>
</g>
<g>
	<line fill="none" stroke="#CCCCCC" stroke-width="8" stroke-miterlimit="10" x1="127.2" y1="155.2" x2="71.4" y2="97.6"/>
	<line fill="none" stroke="#CCCCCC" stroke-width="8" stroke-miterlimit="10" x1="71.8" y1="102.8" x2="129.2" y2="46.5"/>
</g>
</svg>
