<?xml version="1.0" encoding="utf-8"?>
<!-- Generator: Adobe Illustrator 18.1.1, SVG Export Plug-In . SVG Version: 6.00 Build 0)  -->
<!DOCTYPE svg PUBLIC "-//W3C//DTD SVG 1.1//EN" "http://www.w3.org/Graphics/SVG/1.1/DTD/svg11.dtd">
<svg version="1.1" id="Calque_1" xmlns="http://www.w3.org/2000/svg" xmlns:xlink="http://www.w3.org/1999/xlink" x="0px" y="0px"
	 viewBox="0 0 500 500" enable-background="new 0 0 500 500" xml:space="preserve">
<g>
	<path stroke="#000000" stroke-width="3" stroke-miterlimit="10" d="M48.5,257.7c-10.8,0-19.9-8.4-21.1-19.3L7.6,49.5
		C7,44.1,8.8,38,12.4,33.8s8.4-7.2,14.4-7.8L215.8,6.2c12-1.2,22.3,7.2,23.5,19.3l19.9,188.9c0.6,5.4-1.2,11.4-4.8,15.6
		c-3.6,4.2-8.4,7.2-14.4,7.8L50.9,257.7C49.7,257.7,49.1,257.7,48.5,257.7z M217.6,18.2c-0.6,0-0.6,0-1.2,0L27.4,38
		c-2.4,0-4.8,1.2-6,3.6c-1.8,1.8-2.4,4.2-1.8,6.6l19.9,188.9c0.6,4.8,4.8,9,10.2,8.4l188.9-19.9c2.4,0,4.8-1.2,6-3.6
		c1.8-1.8,2.4-4.2,1.8-6.6L226.6,26.6C226.6,21.8,222.4,18.2,217.6,18.2z"/>
	<circle fill="#5AC4D4" cx="133.3" cy="131.9" r="17.4"/>
	<circle stroke="#000000" stroke-width="3" stroke-miterlimit="10" cx="65.9" cy="77.8" r="17.4"/>
	<circle stroke="#000000" stroke-width="3" stroke-miterlimit="10" cx="203.1" cy="189.1" r="17.4"/>
	<path stroke="#000000" stroke-width="3" stroke-miterlimit="10" d="M441.1,495.8c-1.2,0-2.4,0-3.6-0.6l-187.1-31.9
		c-11.4-1.8-19.3-13.2-17.4-24.7l31.9-187.1c1.8-11.4,12.6-19.3,24.7-17.4l187.1,31.9c5.4,1.2,10.8,4.2,13.8,8.4
		c3,4.8,4.8,10.2,3.6,16.2l-31.9,187.1C460.4,488,451.3,495.8,441.1,495.8z M285.9,245.5c-4.8,0-8.4,3-9,7.8L245,440.4
		c-0.6,4.8,2.4,9.6,7.8,10.8l187.1,31.9c5.4,0.6,9.6-2.4,10.8-7.8l31.9-187.1c0.6-2.4,0-4.8-1.8-7.2c-1.2-1.8-3.6-3.6-6-3.6
		l-187.1-31.9C286.5,245.5,285.9,245.5,285.9,245.5z"/>
	<circle fill="#5AC4D4" cx="363.5" cy="364.6" r="17.4"/>
	<circle stroke="#000000" stroke-width="3" stroke-miterlimit="10" cx="313.6" cy="294.2" r="17.4"/>
	<circle stroke="#000000" stroke-width="3" stroke-miterlimit="10" cx="292.5" cy="417.6" r="17.4"/>
	<circle stroke="#000000" stroke-width="3" stroke-miterlimit="10" cx="436.9" cy="315.3" r="17.4"/>
	<circle stroke="#000000" stroke-width="3" stroke-miterlimit="10" cx="415.8" cy="438.6" r="17.4"/>
</g>
</svg>
