<?xml version="1.0" encoding="utf-8"?>
<!-- Generator: Adobe Illustrator 18.1.1, SVG Export Plug-In . SVG Version: 6.00 Build 0)  -->
<!DOCTYPE svg PUBLIC "-//W3C//DTD SVG 1.1//EN" "http://www.w3.org/Graphics/SVG/1.1/DTD/svg11.dtd">
<svg version="1.1" id="Calque_1" xmlns="http://www.w3.org/2000/svg" xmlns:xlink="http://www.w3.org/1999/xlink" x="0px" y="0px"
	 viewBox="0 0 200 200" enable-background="new 0 0 200 200" xml:space="preserve">
<circle fill="#FFFFFF" cx="102.3" cy="147.2" r="45.9"/>
<path fill="#FFFFFF" d="M112.9,97.5l-10.6-28.3L77.1,1.6H51.7l36.2,97.2L112.9,97.5L112.9,97.5z M96.8,96.9c2-0.3,4-0.5,5.7-0.5
	c1.2,0,2.8,0.1,4.4,0.3C103.2,96.5,99.6,96.7,96.8,96.9z"/>
<g>
	<g>
		<g>
			<path fill="#5AC4D4" d="M102.8,162.2L102.8,162.2c1.6,0,2.9-1.3,2.8-2.9l-0.3-27.4c0-1.5-1.3-2.8-2.8-2.8c0,0,0,0-0.1,0
				c-1.5,0-2.8,1.3-2.8,2.9l0.3,27.4C100,161,101.2,162.2,102.8,162.2z"/>
			<path fill="#5AC4D4" d="M112,161.9c0.4,0.2,0.8,0.3,1.2,0.3c1.1,0,2.1-0.6,2.5-1.7l11.5-24.9c0.7-1.4,0.1-3.1-1.4-3.7
				c-1.4-0.7-3.1-0.1-3.7,1.4l-11.5,24.9C110,159.6,110.6,161.2,112,161.9z"/>
			<path fill="#5AC4D4" d="M89.8,160.8c0.5,1,1.5,1.6,2.5,1.6c0.4,0,0.9-0.1,1.3-0.3c1.4-0.7,2-2.4,1.3-3.8l-12.1-24.6
				c-0.7-1.4-2.4-2-3.8-1.3c-1.4,0.7-2,2.4-1.3,3.8L89.8,160.8z"/>
		</g>
	</g>
</g>
<path d="M123.4,101l37.3-99.4h-40.3l-17.9,47.7L84.6,1.6h-7.4l25.2,67.5l10.6,28.3l0,0.1c-1.6-0.3-3.9-0.6-6.1-0.8
	c-3.6-0.2-7.3,0-10.1,0.2c-3.2,0.5-6.5,1.2-8.9,1.9L51.7,1.6h-7.4l37.2,99.3c-17.6,8-29.8,25.6-29.8,46.2c0,28,22.7,50.7,50.7,50.7
	c28,0,50.7-22.7,50.7-50.7C153.2,126.6,140.9,108.9,123.4,101z M102.4,192.2c-24.8,0-45-20.2-45-45c0-24.8,20.2-45,45-45
	c24.8,0,45,20.2,45,45C147.4,172,127.3,192.1,102.4,192.2z"/>
<path d="M106.9,96.7c-3.6-0.2-7.3,0-10.1,0.2c2-0.3,4-0.5,5.7-0.5C103.7,96.4,105.3,96.5,106.9,96.7z"/>
<path fill="#FFFFFF" d="M153,1.6c0,0-35.2,94.6-36.2,97.2c-1.2-0.6-2.5-1-3.9-1.3c-1.9-0.4-4-0.7-6.1-0.8c-1.6-0.2-3.2-0.3-4.4-0.3
	c-1.7,0-3.7,0.2-5.7,0.5c-3,0.3-5,0.6-5,0.6l10.6-28.4l25.2-67.5H153z"/>
</svg>
