<?xml version="1.0" encoding="utf-8"?>
<!-- Generator: Adobe Illustrator 18.1.1, SVG Export Plug-In . SVG Version: 6.00 Build 0)  -->
<!DOCTYPE svg PUBLIC "-//W3C//DTD SVG 1.1//EN" "http://www.w3.org/Graphics/SVG/1.1/DTD/svg11.dtd">
<svg version="1.1" id="Calque_1" xmlns="http://www.w3.org/2000/svg" xmlns:xlink="http://www.w3.org/1999/xlink" x="0px" y="0px"
	 viewBox="0 0 200 200" enable-background="new 0 0 200 200" xml:space="preserve">
<g id="Your_Icon">
	<g>
		<path fill="#FFFFFF" d="M99,15.4c2.1,0,4.3,0,5.1,0.1c3.8,0.2,3.3,20.9,7,21.6c3.4,0.7,16.3,5.3,19.3,7c0.2,0.1,0.4,0.2,0.6,0.2
			c3.8,0,14.2-12.5,17.9-12.5c0.3,0,0.5,0.1,0.7,0.2c1.4,1,6.7,5.4,7.9,6.6c2.7,2.7-10.8,18-8.6,21c2.1,2.7,9.2,14.5,10.3,17.8
			c0.4,1.3,3.5,1.6,7.2,1.6c2.6,0,5.6-0.1,8.3-0.1c3.8,0,6.8,0.3,7.1,1.7c0.3,1.7,1.6,8.4,1.8,10.1c0.3,3.8-19.9,6.8-20.1,10.6
			c-0.2,3.4-2.3,17-3.6,20.2c-1.4,3.5,17,13.5,15.2,16.8c-0.8,1.5-4.2,7.5-5.1,8.9c-0.3,0.4-0.8,0.6-1.5,0.6
			c-4.2,0-14.9-5.8-19.2-5.8c-0.7,0-1.2,0.1-1.5,0.5c-2.3,2.5-12.8,11.5-15.7,13.2c-3.3,1.9,4.3,21.2,0.8,22.7c-1.6,0.7-8,3-9.7,3.5
			c-0.1,0-0.2,0-0.3,0c-3.6,0-9.8-18-13.5-18c-0.1,0-0.1,0-0.2,0c-1.7,0.3-6,0.4-10.3,0.4s-8.6-0.1-10.3-0.4c-0.1,0-0.1,0-0.2,0
			c-3.7,0-9.9,18-13.5,18c-0.1,0-0.2,0-0.3,0c-1.6-0.5-8.1-2.9-9.6-3.5c-3.5-1.5,4.1-20.8,0.8-22.7c-3-1.7-13.4-10.7-15.7-13.2
			c-0.3-0.3-0.8-0.5-1.5-0.5c-4.3,0-15,5.8-19.2,5.8c-0.7,0-1.3-0.2-1.5-0.6c-1-1.4-4.3-7.4-5.1-8.9c-1.8-3.3,16.6-13.3,15.2-16.8
			c-1.2-3.2-3.4-16.8-3.6-20.2c-0.2-3.8-20.4-6.9-20.1-10.6c0.1-1.7,1.4-8.4,1.8-10.1c0.3-1.4,3.3-1.7,7.1-1.7
			c2.6,0,5.6,0.1,8.3,0.1c3.7,0,6.7-0.3,7.2-1.6c1.1-3.2,8.2-15.1,10.3-17.8c2.3-3-11.2-18.4-8.6-21c1.2-1.2,6.5-5.6,7.9-6.6
			c0.2-0.2,0.4-0.2,0.7-0.2c3.7,0,14.1,12.5,17.9,12.5c0.2,0,0.5,0,0.6-0.2c3-1.7,15.9-6.4,19.3-7c3.7-0.7,3.2-21.4,7-21.6
			C94.7,15.5,96.8,15.4,99,15.4 M99,2c-1.6,0-4.5,0-6,0.1C89.7,2.3,81.8,4,78.7,15.5c-0.7,2.7-1.2,5.8-1.7,8.8
			c-0.1,0.5-0.2,1.2-0.3,1.9c-2.7,0.9-5.7,2-8.5,3.1c-0.5-0.4-1-0.9-1.4-1.2C61,22.9,56,18.4,49,18.4c-3.3,0-6.4,1-8.9,3
			c-1,0.8-7.1,5.7-9.1,7.7c-2.3,2.3-7.1,8.7-2.2,19.3c1.2,2.6,2.8,5.2,4.4,7.8c0.3,0.5,0.6,1.1,1,1.7c-1.5,2.4-3.1,5.2-4.6,7.8
			c-0.6,0-1.2,0-1.8,0c-1.5,0-3-0.1-4.5-0.1c-3.1,0-5.4,0.2-7.4,0.6C5.9,68,3.5,75.6,3.1,77.9c0,0.1-1.8,8.7-2,11.7
			c-0.3,4,0.6,11.3,10.7,16c2.6,1.2,5.5,2.2,8.4,3.2c0.5,0.2,1.2,0.4,1.8,0.6c0.4,2.8,0.9,5.9,1.5,8.9c-0.5,0.4-1,0.8-1.5,1.2
			c-2.4,1.9-4.8,3.8-6.8,5.9c-8.6,8.6-5.8,16.4-4.2,19.4c0,0.1,4.2,7.7,6,10.2c2.8,4,7.4,6.3,12.6,6.3c4.6,0,9.4-1.9,14.4-3.8
			c0.5-0.2,1.2-0.5,1.8-0.7c2.1,1.9,4.6,4,6.9,5.8c-0.1,0.7-0.3,1.3-0.4,1.8c-0.6,3-1.2,6-1.5,8.9c-1,11.9,6,16.2,9.1,17.5
			c1.7,0.7,8.7,3.3,11.1,4c1.3,0.4,2.7,0.6,4,0.6c9.8,0,14.4-8.5,18.5-16c0.3-0.5,0.6-1.1,0.9-1.7c1.6,0,3.1,0,4.5,0s2.9,0,4.5,0
			c0.3,0.6,0.7,1.2,0.9,1.7c4.1,7.5,8.7,16,18.5,16c1.4,0,2.7-0.2,4-0.6c2.4-0.7,9.5-3.3,11.1-4c3.1-1.3,10.1-5.6,9.1-17.5
			c-0.2-2.8-0.9-5.9-1.5-8.9c-0.1-0.5-0.2-1.2-0.4-1.8c2.3-1.8,4.7-3.9,6.9-5.8c0.7,0.3,1.3,0.5,1.8,0.7c5,2,9.8,3.8,14.4,3.8
			c5.2,0,9.8-2.3,12.6-6.3c1.8-2.5,5.9-10.2,6-10.3c1.6-3,4.4-10.8-4.2-19.4c-2-2-4.5-4-6.8-5.9c-0.4-0.3-0.9-0.7-1.5-1.2
			c0.6-2.9,1.1-6.1,1.5-8.9c0.7-0.2,1.3-0.5,1.8-0.6c2.9-1,5.8-2,8.4-3.2c10.1-4.7,11-12.1,10.7-16c-0.3-3-2-11.7-2-11.7
			c-0.5-2.3-2.8-9.9-12.9-11.8c-2-0.4-4.3-0.6-7.4-0.6c-1.4,0-2.9,0-4.5,0.1c-0.6,0-1.2,0-1.8,0c-1.4-2.6-3.1-5.4-4.6-7.8
			c0.4-0.6,0.7-1.2,1-1.7c1.6-2.6,3.2-5.2,4.4-7.8c1.6-3.5,4.7-12.5-2.2-19.3c-2-2-8.1-6.9-9.1-7.7c-2.6-2-5.7-3-8.9-3
			c-6.9,0-12,4.4-17.8,9.6c-0.4,0.4-0.9,0.8-1.4,1.2c-2.7-1.1-5.7-2.2-8.5-3.1c-0.1-0.7-0.2-1.3-0.3-1.9c-0.5-3-0.9-6.1-1.7-8.8
			c-3.1-11.4-11-13.1-14.3-13.3C103.5,2,100.6,2,99,2L99,2z"/>
	</g>
	<g>
		<path fill="#FFFFFF" d="M99,141c-23.3,0-42.3-19-42.3-42.3s19-42.3,42.3-42.3c23.3,0,42.3,19,42.3,42.3
			C141.2,122,122.3,141,99,141z M99,69.9c-15.9,0-28.8,12.9-28.8,28.8c0,15.9,12.9,28.8,28.8,28.8s28.8-12.9,28.8-28.8
			C127.8,82.9,114.9,69.9,99,69.9z"/>
	</g>
</g>
</svg>
