<?xml version="1.0" encoding="utf-8"?>
<!-- Generator: Adobe Illustrator 18.1.1, SVG Export Plug-In . SVG Version: 6.00 Build 0)  -->
<!DOCTYPE svg PUBLIC "-//W3C//DTD SVG 1.1//EN" "http://www.w3.org/Graphics/SVG/1.1/DTD/svg11.dtd">
<svg version="1.1" id="Calque_1" xmlns="http://www.w3.org/2000/svg" xmlns:xlink="http://www.w3.org/1999/xlink" x="0px" y="0px"
	 viewBox="0 0 200 200" enable-background="new 0 0 200 200" xml:space="preserve">
<path fill="#FFFFFF" d="M197.1,54.7v25.1v90.8c0,15.2-12.4,27.2-27.2,27.2H31.4c-15.2,0-27.2-12.4-27.2-27.2V79.7V54.7
	c0-15.2,12.4-27.2,27.2-27.2h9.2V38v15.9c0,11,8.8,19.8,19.8,19.8s19.8-8.8,19.8-19.8V38V27.4h43.1V38v15.9c0,11,8.8,19.8,19.8,19.8
	s19.8-8.8,19.8-19.8V38V27.4h7.4C184.7,27.4,197.1,39.5,197.1,54.7z M189,77.3H12.3v93.3c0,10.6,8.5,19.1,19.1,19.1h138.5
	c10.6,0,19.1-8.5,19.1-19.1V77.3z M60.3,66c6.7,0,12-5.3,12-12V38V27.4V14c0-6.7-5.3-12-12-12c-6.7,0-12,5.3-12,12v13.4V38v15.9
	C48.3,60.7,53.6,66,60.3,66z M143,66c6.7,0,12-5.3,12-12V38V27.4V14c0-6.7-5.3-12-12-12s-12,5.3-12,12v13.4V38v15.9
	C130.7,60.7,136.3,66,143,66z M144.8,102.7c-3.5-3.5-9.5-3.5-13.1,0l-43.1,42.8l-19.1-19.1c-3.5-3.5-9.5-3.5-13.1,0s-3.5,9.5,0,13.1
	l25.4,25.4c1.8,1.8,4.2,2.8,6.4,2.8c2.1,0,4.6-1.1,6.4-2.8l49.5-49.5C148.3,111.9,148.3,106.2,144.8,102.7z"/>
</svg>
