<?xml version="1.0" encoding="utf-8"?>
<!-- Generator: Adobe Illustrator 18.1.1, SVG Export Plug-In . SVG Version: 6.00 Build 0)  -->
<!DOCTYPE svg PUBLIC "-//W3C//DTD SVG 1.1//EN" "http://www.w3.org/Graphics/SVG/1.1/DTD/svg11.dtd">
<svg version="1.1" id="Calque_1" xmlns="http://www.w3.org/2000/svg" xmlns:xlink="http://www.w3.org/1999/xlink" x="0px" y="0px"
	 viewBox="0 0 500 500" enable-background="new 0 0 500 500" xml:space="preserve">
<g>
	<path d="M447,50.2c-61-61-160.3-61-221.3,0s-61,160.3,0,221.3c61,61,160.3,61,221.3,0S508.1,111.2,447,50.2z M252.2,245
		c-46.4-46.4-46.4-121.9,0-168.3c46.4-46.4,121.9-46.4,168.3,0c46.4,46.4,46.4,121.9,0,168.3S298.6,291.4,252.2,245z"/>
	<path fill="#5AC4D4" d="M408.7,229.7l6-6.9c2.1-2.7,4-5.9,5.9-8.8l2.8-4.5c0.8-1.5,1.4-3,2.1-4.5c1.4-3,2.7-6,3.9-8.9
		c1-3.1,1.8-6.1,2.6-9.1c0.8-3,1.6-5.8,1.8-8.8c0.3-2.9,0.6-5.7,0.9-8.4c0.3-2.7-0.1-5.4-0.1-7.9c-0.2-2.5-0.4-4.9-0.5-7.2
		c-0.5-2.3-1-4.4-1.5-6.4c-0.9-3.9-1.9-7.2-3.3-9.9c-2.4-5.2-4.1-7.9-4.1-7.9s-0.6,3.3-1.3,8.7c-0.1,2.6-1,5.8-1.8,9.4
		c-0.4,1.7-0.8,3.6-1.2,5.5c-0.6,1.9-1.3,3.9-2,5.9c-1,4.1-3,8.3-4.8,12.7c-0.8,2.2-1.9,4.4-3.1,6.6c-1.2,2.2-2.2,4.5-3.4,6.7
		c-3,4.1-5.3,9.1-8.5,12.8c-1.5,2-3,4-4.5,6.1l-6.2,6.8l-1.5,1.7l-0.7,0.9l-0.3,0.3l-2.9,2.6c-2,1.8-3.8,3.9-5.9,5.5
		c-2.1,1.6-4.2,3.3-6.2,5c-1.9,1.8-4.3,2.9-6.3,4.5c-4.1,3.2-8.6,5.3-12.7,7.9c-2.1,1.2-4.2,2-6.3,3.1c-2,1-4,2.1-6.1,2.8
		c-4,1.5-7.7,3.3-11.1,4.2c-3.4,0.9-6.4,2.4-9.2,2.8c-5.4,1.1-8.6,2.1-8.6,2.1s3,1.4,8.2,3.3c2.5,1.1,6,1.6,10.1,2.3
		c4.2,0.9,8.6,0.7,13.7,0.7c5,0,10.4-1.1,16.2-2.1c5.5-1.6,11.6-3.1,17.3-6.1c5.9-2.4,11.5-6.1,17.1-9.9c2.7-2,5.3-4.2,7.8-6.4
		l3.8-3.4L408.7,229.7z"/>
	<path d="M193.2,249.3L181.6,261l-3.4,3.4c-4.8,4.8-4.7,13.9-3.5,21.9L10.3,450.6c-11,11-12.4,27.3-1.5,38.3
		c11,11,27.3,9.5,38.3-1.5l164.3-164.3c8,1.2,17.1,1.3,21.9-3.5l3.4-3.4l11.7-11.7c-11.1-7.3-21.6-15.8-30.5-24.7
		C209.1,270.9,200.6,260.4,193.2,249.3z"/>
</g>
</svg>
