<?xml version="1.0" encoding="utf-8"?>
<!-- Generator: Adobe Illustrator 19.1.0, SVG Export Plug-In . SVG Version: 6.00 Build 0)  -->
<!DOCTYPE svg PUBLIC "-//W3C//DTD SVG 1.1//EN" "http://www.w3.org/Graphics/SVG/1.1/DTD/svg11.dtd">
<svg version="1.1" id="Layer_1" xmlns="http://www.w3.org/2000/svg" xmlns:xlink="http://www.w3.org/1999/xlink" x="0px" y="0px"
	 viewBox="0 0 60.3 57" enable-background="new 0 0 60.3 57" xml:space="preserve">
<g>
	
		<polyline fill="none" stroke="#231F20" stroke-width="4" stroke-linecap="round" stroke-linejoin="round" stroke-miterlimit="10" points="
		43.5,23.5 53.8,23.5 53.8,44.5 43.5,44.5 	"/>
	
		<rect x="9.2" y="10.6" fill="#FFFFFF" stroke="#231F20" stroke-width="4" stroke-linecap="round" stroke-linejoin="round" stroke-miterlimit="10" width="36.7" height="43.8"/>
	
		<path fill="#D1D3D4" stroke="#231F20" stroke-width="4" stroke-linecap="round" stroke-linejoin="round" stroke-miterlimit="10" d="
		M42,2.6c-3.4,0-6.4,2.2-7.5,5.2c-1.1-3.1-4.1-5.2-7.5-5.2c-3,0-5.6,1.7-7,4.1c-1.4-2.5-4-4.1-7-4.1c-4.4,0-8,3.6-8,8
		c0,4.4,3.6,8,8,8c3,0,5.6-1.7,7-4.1c1.4,2.5,4,4.1,7,4.1c3.4,0,6.4-2.2,7.5-5.2c1.1,3.1,4.1,5.2,7.5,5.2c4.4,0,8-3.6,8-8
		C50,6.2,46.4,2.6,42,2.6z"/>
	
		<line fill="#D1D3D4" stroke="#231F20" stroke-width="4" stroke-linecap="round" stroke-linejoin="round" stroke-miterlimit="10" x1="21.5" y1="25.4" x2="21.5" y2="43.8"/>
	
		<line fill="#D1D3D4" stroke="#231F20" stroke-width="4" stroke-linecap="round" stroke-linejoin="round" stroke-miterlimit="10" x1="32.5" y1="25.4" x2="32.5" y2="43.8"/>
</g>
</svg>
