<?xml version="1.0" encoding="utf-8"?>
<!-- Generator: Adobe Illustrator 18.1.1, SVG Export Plug-In . SVG Version: 6.00 Build 0)  -->
<!DOCTYPE svg PUBLIC "-//W3C//DTD SVG 1.1//EN" "http://www.w3.org/Graphics/SVG/1.1/DTD/svg11.dtd">
<svg version="1.1" id="Calque_1" xmlns="http://www.w3.org/2000/svg" xmlns:xlink="http://www.w3.org/1999/xlink" x="0px" y="0px"
	 viewBox="0 0 200 200" enable-background="new 0 0 200 200" xml:space="preserve">
<path fill="none" d="M157,152.5V134"/>
<path fill="#010202" d="M190.3,87.2V62.8c0-2.1-1.7-3.8-3.8-3.8h-1.1c-0.4-14.6-12.7-26.5-27.8-26.5c-15,0-27.3,11.9-27.8,26.5H129
	c-2.1,0-3.8,1.7-3.8,3.8V87l-6.4,12.3L108,109c-0.8-0.2-1.7-0.4-2.5-0.4l-5.7-31l-6.4-39.8c-0.2-1.1-1.1-1.7-2.1-1.5
	c-1.1,0.2-1.7,1.1-1.5,2.1l0.4,2.5L98.9,95l2.8,14c-1.1,0.6-1.9,1.9-1.9,3.4l-0.4,8.7c0,1.1,0.4,2.1,1.1,3c0.6,0.9,1.7,1.3,2.8,1.3
	c0,0,0.8,0,1.5,0l8.3,43.5c-0.6-0.4-1.3-0.6-1.9-0.9c-1.5-0.6-2.8-1.1-4-1.5c-2.2-0.8-3.8-1.2-4-1.3c0.2,0.2,1.4,1.2,3.4,2.3
	c1.1,0.6,2.3,1.5,3.6,2.1c0.6,0.4,1.5,0.6,2.1,1.1c0.2,0,0.2,0.2,0.4,0.2c-0.2,0-0.2,0.2-0.4,0.2c-0.6,0.4-1.5,0.6-2.1,1.1
	c-1.3,0.9-2.5,1.5-3.6,2.1c-2,1.2-3.2,2.2-3.4,2.3c0.2,0,1.8-0.5,4-1.3c1.3-0.4,2.5-0.8,4-1.5c0.6-0.2,1.5-0.4,2.1-0.8
	c0.6-0.2,1.1-0.4,1.7-0.6h0.4c0.6,0.2,1.1,0.4,1.7,0.6c0.6,0.2,1.5,0.6,2.1,0.8c1.5,0.6,2.8,1.1,4,1.5c2.2,0.8,3.8,1.2,4,1.3
	c-0.2-0.1-1.4-1.1-3.4-2.3c-1.1-0.6-2.3-1.5-3.6-2.1c-0.6-0.4-1.5-0.6-2.1-1.1c-0.2,0-0.2-0.2-0.4-0.2c0.2,0,0.2-0.2,0.4-0.2
	c0.6-0.4,1.5-0.6,2.1-1.1c1.3-0.8,2.5-1.5,3.6-2.1c2-1.2,3.2-2.2,3.4-2.3c-0.2,0-1.8,0.5-4,1.3c-1.3,0.4-2.5,0.8-4,1.5
	c-0.6,0.2-1.5,0.4-2.1,0.9c-0.2,0-0.2,0-0.2,0l-8.3-44.3c0.9-0.4,1.7-0.8,2.3-1.5l17.4-6.6l5.7-5.3v37.3c0.6,6.4,5.9,11.2,12.1,11.2
	c4,0,7.6-2.1,9.8-5.1v4.5h24.4v-17.2c5.3-0.6,9.3-4.7,10-10h2.5V97.8C192.6,94,191.7,90.4,190.3,87.2z M186.2,61.5
	c0.6,0,1.3,0.6,1.3,1.3v19.7c-1.9-2.8-4.5-5.1-7.2-7.2c3-4,4.7-8.7,5.1-13.8H186.2z M157.6,35.3c14,0,25.2,11,25.2,24.6
	c0,13.6-11.2,24.6-25.2,24.6c-14,0-25.2-11-25.2-24.6C132.4,46.3,143.8,35.3,157.6,35.3z M127.7,63c0-0.6,0.6-1.3,1.3-1.3h0.9
	c0.4,5.1,2.3,9.8,5.1,13.8c-3,2.1-5.3,4.5-7.2,7.2V63z M110.8,117.1c0,1.9-1.1,3.6-3.2,4.9c-0.4,0.2-0.6,0.2-1.1,0.4
	c-0.4,0-0.9,0.2-1.3,0.2h-0.6c-0.2,0-0.2,0-0.4,0c-0.4,0-0.8,0-0.8,0c-0.2,0-0.6-0.2-0.9-0.4c-0.2-0.4-0.4-0.6-0.4-1.1l0.4-8.7
	c0-0.6,0.6-1.3,1.5-1.3c0,0,1.1,0,1.3,0C108.4,111.4,111,113.9,110.8,117.1z M177.5,156.7h-19.3v-3h19.3V156.7z M158.2,151
	c0.6-4.9,4.7-8.7,9.5-8.7c5.1,0,9.1,3.8,9.5,8.7H158.2z M177.5,144.6c-2.3-3-5.7-4.9-9.8-4.9c-4,0-7.6,1.9-9.8,5.1V134
	c0.6-4.9,4.9-8.7,9.8-8.7c4.9,0,9.1,3.8,9.8,8.7V144.6z M180.1,139.6v-7.2h7.2C186.6,136,183.7,138.9,180.1,139.6z M190,129.4h-10
	v-22.9h-2.5v21.4c-2.3-3.2-5.7-5.1-9.8-5.1c-6.2,0-11.5,4.9-12.1,11.2v14.2c-0.6,4.9-4.7,8.7-9.5,8.7c-4.9,0-8.9-3.8-9.5-8.7v-41.1
	h-2.5l-6.8,6.8l-14.4,6.6c0.4-0.8,0.8-1.9,0.8-3.2c0-2.8-1.3-5.3-3.4-7l10-8.5l7.8-14.4v-0.2c1.9-3.8,4.9-7,8.5-9.8
	c5.1,5.7,12.7,9.5,21.2,9.5s16.1-3.6,21.2-9.5c6.8,4.9,11,12.3,11,20.3V129.4z"/>
<path fill="#010202" d="M146.4,96.7V122h21V96.7H146.4z M165.9,120.3h-17.6V98.4h17.6V120.3z"/>
<rect x="152.3" y="109.5" fill="#010202" width="9.8" height="1.7"/>
<path fill="#010202" d="M157.2,113.3c-1.5,0-2.8,1.3-2.8,2.8c0,1.5,1.3,2.8,2.8,2.8c1.5,0,2.8-1.3,2.8-2.8
	C159.9,114.3,158.7,113.1,157.2,113.3z M157.2,117.1c-0.6,0-1.1-0.4-1.1-1.1c0-0.6,0.4-1.1,1.1-1.1c0.6,0,1.1,0.4,1.1,1.1
	C158.2,116.7,157.8,117.1,157.2,117.1z"/>
<path fill="#010202" d="M178.4,48.6c0,0-0.2-0.2-0.4-0.4l-0.2-0.2c-1.9-1.7-7.4-5.5-19.9-5.5c0,0-0.2,0-0.6,0
	c-3.6,0-16.1,0.6-19.9,6.4c-1.5,1.5-3,4.7-3,10.2c0,12.9,10.2,23.3,23,23.3c0.2,0,0.5,0,0.8,0c12.9,0,23.3-10.6,23.3-23.5
	C181.3,53.3,179.7,50.3,178.4,48.6z M172.9,74.5c-3.9,3.9-9.3,6.4-15.3,6.4c-11.9,0-21.6-9.8-21.6-21.8c0-2.7,0.4-4.7,0.9-6.2
	c0.5-1.5,1.1-2.5,1.4-3.1c3.4-5.3,16.1-5.5,18.7-5.5c0.2,0,0.4,0,0.4,0c12.3,0,17.4,3.8,18.6,5.1l0.2,0.2c0.2,0.2,0.4,0.4,0.4,0.4
	c1.1,1.1,2.5,3.8,2.5,9.1C179.2,65,176.8,70.5,172.9,74.5z"/>
<rect x="152.3" y="105.6" fill="#010202" width="9.8" height="1.7"/>
<rect x="152.3" y="101.6" fill="#010202" width="9.8" height="1.7"/>
<path fill="#5CC1D2" d="M98.9,95c-2.8,1.9-5.5,3.6-8.5,5.1c-3.4,1.7-6.8,3.2-10.2,4.2c-1.7,0.6-3.6,1.1-5.5,1.5
	c-1.9,0.4-3.6,0.6-5.5,0.6c-1.9,0.2-3.8,0-5.7-0.2c-1.4-0.1-2.8-0.4-4.1-0.8L98.9,95z"/>
<path fill="#5CC1D2" d="M98.9,95l-39.5,10.4c-0.5-0.1-1-0.3-1.4-0.5c-1.7-0.6-3.6-1.1-5.3-1.7c-1.7-0.4-3.6-1.1-5.3-1.5
	c-1.7-0.4-3.6-0.8-5.3-1.3c-0.8-0.2-1.7-0.2-2.8-0.4c-0.8-0.2-1.7-0.2-2.8-0.4c-0.8-0.2-1.7-0.2-2.8-0.2c-0.8,0-1.7-0.2-2.8,0h-2.8
	c-0.4,0-0.8,0-1.3,0.2l-1.3,0.2c-0.4,0-0.8,0.2-1.3,0.2c-0.4,0.2-0.8,0.2-1.3,0.4c-0.9,0.2-1.7,0.6-2.3,0.8c-1.5,0.6-3,1.7-4.2,2.8
	l-1.9,1.7l-0.4-2.3l-2.1-13.1L7.9,64.1l-1.1-6.6c-0.4-2.1-0.6-4.4-0.8-6.6v-0.6l0.4-0.4L7.7,49c0.4-0.2,0.9-0.6,1.3-0.8
	c0.4-0.2,0.9-0.4,1.3-0.6c0.4-0.2,0.8-0.4,1.3-0.6c0.8-0.4,1.9-0.6,2.8-0.8c0.4-0.2,0.9-0.2,1.5-0.2l1.1-0.6h0.6l1.7-0.2h4.2
	c0.9,0,1.9,0.2,2.8,0.2c0.9,0,1.9,0.2,2.8,0.4l1.5,0.2l1.5,0.2c0.8,0.2,1.9,0.4,2.8,0.6l2.8,0.6l2.8,0.9c1.9,0.4,3.6,1.1,5.3,1.7
	c0.8,0.2,1.7,0.6,2.8,0.8l2.5,0.8c0.8,0.2,1.7,0.6,2.5,0.6c0.9,0.2,1.7,0.4,2.8,0.4c0.8,0,1.9,0.2,2.8,0.2h2.8
	c0.8,0,1.9-0.2,2.7-0.2c0.8-0.2,1.7-0.2,2.8-0.4c0.8-0.2,1.7-0.4,2.5-0.6c0.8-0.2,1.7-0.6,2.5-0.8c3.4-1.3,6.8-2.8,10-4.5
	c1.5-0.8,3.2-1.9,4.7-2.8c0.9-0.4,1.5-1.1,2.1-1.5c0.4-0.4,0.9-0.6,1.3-1.1L98.9,95z"/>
</svg>
