<?xml version="1.0" encoding="utf-8"?>
<!-- Generator: Adobe Illustrator 18.1.1, SVG Export Plug-In . SVG Version: 6.00 Build 0)  -->
<!DOCTYPE svg PUBLIC "-//W3C//DTD SVG 1.1//EN" "http://www.w3.org/Graphics/SVG/1.1/DTD/svg11.dtd">
<svg version="1.1" id="Calque_1" xmlns="http://www.w3.org/2000/svg" xmlns:xlink="http://www.w3.org/1999/xlink" x="0px" y="0px"
	 viewBox="0 0 200 200" enable-background="new 0 0 200 200" xml:space="preserve">
<g id="Your_Icon">
	<g>
		<path fill="#010202" d="M103.4,92.1L94,104c-1.3-0.7-3.8-1.3-8-1.6c-4-0.4-8.1-0.5-12.3-0.5c-6.9,0-10.8,0.4-11.9,0.7l6-9l0.5-0.2
			c0.6-0.2,1.1-0.4,1.8-0.5c0,0,0.1,0,0.1,0c0.5,0,1.2-0.2,1.7-0.3c0.5,1,1.2,1.9,2,2.7c0.1,0.1,0.2,0.2,0.3,0.3
			c-0.6,0-1.3,0-1.9,0.1c0,0-0.1,0-0.1,0c0,0-0.1,0-0.1,0C71,95.9,69.9,96,69,96.4l-3.1,3.6c1.5-0.4,3.3-0.5,5.2-0.7
			c2-0.4,4.2-0.4,6.5-0.4c6.5,0,11.8,0.5,15.5,2l4.3-5.4c-1.1-0.2-2.2-0.4-3.3-0.4c-0.1,0-0.1,0-0.2,0h-0.1c-3.3-0.2-7-0.3-10.8-0.4
			c-0.5,0-0.9,0-1.3,0c-2.4,0-4.6,0.2-6.5,0.3c0,0,0,0-0.1,0c-0.1,0-0.3,0-0.4,0h-0.5c-0.7-1.1-1.4-2.2-2-3.3l0.7-0.1
			c0.2,0,0.3,0,0.5-0.1c0.4-0.1,0.9-0.1,1.4-0.2h0c0,0,0,0,0,0c0.2,0,0.4-0.1,0.6-0.1c0.9-0.2,1.8-0.4,2.9-0.4c0,0,0,0.1,0,0.1
			c0,0,0,0.1,0.1,0.1c0,0.1,0.1,0.1,0.2,0.2c0,0,0.1,0.1,0.1,0.1c1.1,1.4,2.8,2.2,4.8,2.2h0.1c1.6,0,2.9-0.5,3.6-1.1L87.1,91
			c0,0-0.1,0.1-0.1,0.1v0c-0.5,0.4-1.4,0.7-2.4,0.8c-0.2,0-0.3,0-0.5,0H84c-1,0-2-0.4-2.9-1.1c1.8-0.2,3.8-0.2,5.8-0.2
			c3.6,0,6.5,0.2,8.9,0.4h1.1C98.9,91.3,101,91.5,103.4,92.1z"/>
		<path fill="#010202" d="M122.4,100.8l-2.2,2.5c-0.4-0.7-1.3-1.8-2.5-2.9c-1.3-1.3-2.5-2-3.6-2.4l0.9-2.7
			C118.6,96.2,120.9,98,122.4,100.8z"/>
		<path fill="#010202" d="M145.2,106.9l3.8,2.7c-0.2,0.9-0.5,1.6-1.3,2.2c-0.7,0.5-1.5,0.9-2.2,0.9c-1.1,0.2-2-0.4-2.7-1.4
			c-0.7-1.1-1.1-2.5-1.1-4.2c0-1.6,0.2-2.9,0.7-4c0.4-1.1,1.3-1.6,2.3-1.8c1.6-0.4,3.1,0.7,4.2,3.2L145.2,106.9z"/>
		<path fill="#010202" d="M177.2,113.2c-0.7-3.3-1.5-6.3-2.2-8.9c-1.3-3.6-2.4-6-3.6-6.9c0.2-1.1,0.4-2.5,0.5-4.2
			c0.2-1.6,0.2-3.1,0.2-4.3c0-3.1-0.4-5.6-1.3-8c-0.7-2.2-2.4-4-4.3-5.4l-13,10.5c-0.5,0-1.1,0-1.8-0.2c-0.7,0-1.4-0.2-2.2-0.2
			c-2.7,0-5.6,0.4-8.7,0.9c-3.1,0.5-6,1.3-8.5,1.8c-6.2-2.9-11.9-4.9-17.5-5.8c-4.3-0.9-10-1.3-17.4-1.4c-0.1,0-0.1,0-0.2,0h-7
			c-3.4,0-6.7,0.2-10.1,0.5c-0.2,0.5-0.3,1-0.5,1.6c0,0.1,0,0.1,0,0.2h6.7v1.3h-7v1.3c3.6-0.5,7.2-0.7,10.8-0.7h7.9
			c5.8,0,10.4,0.4,13.9,0.7c4.9,0.5,9.6,2,13.8,4.5c-0.5,0.5-0.9,0.7-1.1,0.9c-1.4,1.3-2.3,1.8-2.9,1.5c-2.7-0.9-5.2-1.6-7.4-2
			c-2.2-0.4-4.3-0.7-6.3-0.7c0,0.4,0,0.7-0.2,1.4c0,2.9,0.6,6.7,1.5,11.4c0.9,4.7,2.2,8,3.3,9.8l2.4-2.2c-1.3-2.9-2.4-5.8-3.1-8.7
			c-0.7-3.1-1.1-5.4-1.1-7.4c0-0.4,0-0.9,0.2-1.6c3.1,0.5,5.4,1.1,6.7,1.5c3.1,0.9,5.8,2.3,7.8,4.3l2.5-1.3l-1.3-2.7
			c4-2.2,7.8-3.6,11-4.5c3.4-0.9,6.5-1.3,9.4-1.3c3.8,0,7.2,0.9,10.7,2.7c1.3,0.7,2.3,1.3,3.3,2l2.5-2.4c-0.9-0.9-1.6-1.6-2.3-2.2
			c-0.7-0.4-1.6-0.9-3.3-1.5l8.3-7.6c1.1,1.3,2,2.9,2.3,4.5c0.5,1.8,0.7,3.6,0.7,5.8c0,3.1-0.5,5.6-1.4,7.8c1.4,1.8,2.5,3.8,3.4,6
			c0.7,2.2,1.1,4.5,1.1,6.5c-0.4,0-0.9,0-1.8-0.4H169c-4.5,0-8.5,1.3-11.8,3.4c-3.2,2.4-5.2,5.1-6,8.5c-0.2,1.1-0.4,2-0.4,2.5
			c0,2.9,0.9,5.4,2.9,7.8c1.8,2.4,4.3,4,7.2,5.1c-2.2,1.6-4.5,2.7-7,3.6c-2.5,0.7-5.2,1.3-8,1.3c-4,0-7.8-0.7-11.4-2
			c-3.6-1.3-6.3-2.7-8.3-4.5l-2.7,2.2c1.5,2.5,4.3,4.7,9,6.1c3.6,1.1,7.4,1.8,11.2,1.8c1.1,0,1.8,0,2.2-0.2c-1.3,3.3-2.5,5.8-4,7.6
			c-2.2,2.5-5.2,4.3-9.1,5.4l-1.6,15c-0.5,1.4-1.8,2.7-4,3.4c-2.2,0.9-4.7,1.3-7.4,1.3c-1.8,0-3.2-0.2-4.3-0.5l-0.7-10.9
			c-5.4,1.8-11.8,2.7-18.6,2.7c-7.6,0-14.1-0.9-19.7-2.7c-5.4-1.8-8-4-7.6-6.7l-3.3,0.4c0,1.1-0.2,3.8-1.1,8.5
			c-0.2,1.5-0.7,3.6-1.3,6.5c-0.7,0.7-2,1.1-3.6,1.1c-2.7,0-6-0.9-9.6-2.7s-6.2-4-7.8-6.3l1.3-19.9c-5.6-6.3-8.5-12.5-8.5-18.5
			c0-1.4,0.2-2.9,0.4-4.7s0.4-3.6,0.7-5.6c1.3-8.9,5.6-16.1,12.8-21.9c5.2-4,11.7-7.2,19.5-9.3c0.1,0,0.1,0,0.2-0.1
			c0.5-0.2,1.1-0.4,1.6-0.4c-0.2-0.7-0.2-1.4-0.2-2c0-0.7,0-1.4,0.2-2.2c-0.5,0.2-1.1,0.2-1.8,0.4c-2.2,0.5-4.2,1.1-6.1,1.8
			c-10.7,3.8-18.6,9.4-24.1,16.6c-0.4,0.2-0.9,0.2-1.6,0.2c-1.1,0-2.2-0.2-2.9-0.5c-0.7-0.4-1.3-1.1-1.5-2c1.3,0,2.5-0.4,3.8-1.1
			c1.3-0.7,2.2-1.6,2.7-2.9c0-0.2,0.2-0.5,0.5-1.1c0.2-0.4,0.2-1.1,0.2-2.2c0-1.3-0.4-2.3-0.9-3.4c-0.5-0.9-1.4-1.6-2.5-2
			c-1.1-0.4-2-0.5-2.5-0.5c-1.3,0-2.3,0.4-3.3,1.1c-0.9,0.7-1.6,1.6-2.2,2.7c-0.5,1.1-0.9,2.2-0.9,2.9c0,1.6,0.4,2.9,1.3,4.2
			c-1.8,0.4-3.2-0.2-4-1.1c-0.9-0.9-1.3-2.4-1.3-3.8c0-2.3,0.7-4.3,2-5.8l-1.8-1.5c-1.1,1.3-1.8,2.3-2.3,3.6
			c-0.5,1.3-0.7,2.3-0.7,3.4c0,2.3,0.9,4.3,2.9,5.8c1.8,1.4,4,2,6.2,1.6c0.4,1.8,1.4,2.9,2.7,3.8c1.5,0.7,3.1,1.1,5.1,1.1
			c-2.7,4.3-4.5,9.4-5.2,14.8c-0.2,2.5-0.4,4.7-0.4,6.9c0,8.1,2.5,15.5,7.4,21.9L39,169.8c0.7,2.2,3.4,4.5,7.6,7.2
			c4.9,2.9,9.4,4.3,13.9,4.3c3.1,0,5.6-0.7,7.8-2l1.5-11c3.8,1.8,8.1,3.3,12.8,4c4.7,0.9,9.4,1.3,14.3,1.3c3.6,0,6.9-0.2,9.4-0.6
			c2.7-0.4,4.5-0.7,5.8-1.4l0.4,8.9c2.9,1.3,6.2,1.8,9.6,1.8c3.3,0,6.1-0.6,8.7-1.6c2.5-1.1,4.3-2.4,5.2-4l0.5-6.5
			c2.5,0,5.1-0.2,8-0.7c2.7-0.5,4.5-1.3,5.4-2.4l1.4-17.2l2.7-4.7c3.1-0.7,5.4-1.5,7.2-2.3c2.5-1.5,4.5-3.3,5.8-5.4
			c4.7,0,8.7-1.6,12.1-4.9c2.9-2.9,4.3-5.8,4.3-9C182.4,118.3,180.6,114.8,177.2,113.2z M31.2,98.2c-0.5-1.4-0.9-2.2-0.9-2.2
			C30,95.1,30,94.4,30,93.7c0-0.7,0.2-1.3,0.4-1.8c0.7-1.1,1.1-1.6,1.3-1.8c0.4-0.4,0.9-0.7,1.5-0.7c0.5,0,1.1,0.2,2.2,0.7
			c0.9,0.5,1.4,1.4,1.4,2.7c0,0.5-0.2,1.3-0.4,2c-0.2,0.7-0.7,1.4-1.1,1.8C34.5,97.3,33.2,97.8,31.2,98.2z M145.5,164.8
			c-3.2,1.1-6.3,1.6-9.2,1.6l0.4-4.2c1.5-0.5,2.9-1.5,4.7-2.7c1.8-1.3,3.3-2.7,4.7-4.2L145.5,164.8z M176.3,130.6
			c-2,2.2-4.3,3.4-6.5,4c-0.5,0.2-1.1,0.2-1.5,0.4c-0.5,0-1.1,0.2-1.8,0.2c-2.9,0-5.4-0.7-7.4-2.2c-2.4-1.8-3.6-4.7-3.6-8.9
			c0-3.3,1.6-6,4.9-7.8c2.5-1.5,5.4-2.2,8.5-2.2c3.8,0,6.7,0.9,8.3,2.9c1.4,1.6,2,3.8,2,6.9C179.3,126.1,178.3,128.4,176.3,130.6z
			 M77.8,82.1c-1.9,0.3-3.8,0.5-5.9,1c-0.1,0-0.1,0-0.2,0.1c-0.4,1.1-0.5,2.3-0.5,3.4v0.9c0.1,0,0.1,0,0.2,0c1.4-0.4,3-0.7,4.3-0.9
			v-0.2h1.4V85h-1.4v-1.3h1.8v-0.2C77.7,83,77.7,82.5,77.8,82.1C77.9,82.1,77.8,82.1,77.8,82.1z"/>
		<path fill="#FFFFFF" d="M179.2,123.9c0-3.1-0.5-5.2-2-6.9c-1.6-2-4.5-2.9-8.3-2.9c-3.1,0-6,0.7-8.5,2.2c-3.3,1.8-4.9,4.5-4.9,7.8
			c0,4.2,1.3,7.1,3.6,8.9c2,1.5,4.5,2.2,7.4,2.2c0.7,0,1.3-0.2,1.8-0.2c0.4-0.2,0.9-0.2,1.5-0.4c2.2-0.5,4.5-1.8,6.5-4
			C178.3,128.4,179.3,126.1,179.2,123.9z M165.6,126.2c-0.5,0.7-1.1,1.3-1.8,1.4c-1.6,0.5-2.7-0.4-3.4-2.4c-0.2-0.9,0-1.6,0.4-2.3
			c0.4-0.7,1.1-1.1,2-1.4c1.6-0.7,2.7,0,3.2,2.3C166.1,124.6,166.1,125.3,165.6,126.2z M174.3,124.3c-1.4,0.2-2.2-0.5-2.4-2.4
			c0-1.8,0.5-2.7,1.8-2.9c1.5-0.2,2.4,0.5,2.5,2.2C176.3,122.8,175.5,123.9,174.3,124.3z"/>
		<path fill="#FFFFFF" d="M146.1,155.4l-0.5,9.4c-3.2,1.1-6.3,1.6-9.2,1.6l0.4-4.2c1.5-0.5,2.9-1.5,4.7-2.7
			C143.2,158.3,144.6,156.8,146.1,155.4z"/>
		<path fill="#010202" d="M165.1,105.3c-0.2,0.7-0.4,1.3-0.7,1.8c-0.5,0.9-1.1,1.3-2,1.4c-0.9,0.4-1.8,0.2-2.5-0.7
			c-0.7-0.7-1.1-1.6-1.3-2.5c-0.2-0.9-0.4-1.8-0.4-2.5c0-2.4,0.7-3.6,2.3-4.2c0.7-0.2,1.4-0.2,2.2,0.4c0.7,0.4,1.3,1.1,1.6,2
			l-3.1,2.2L165.1,105.3z"/>
		<path fill="#010202" d="M165.6,126.2c-0.5,0.7-1.1,1.3-1.8,1.4c-1.6,0.5-2.7-0.4-3.4-2.4c-0.2-0.9,0-1.6,0.4-2.3
			c0.4-0.7,1.1-1.1,2-1.4c1.6-0.7,2.7,0,3.2,2.3C166.1,124.6,166.1,125.3,165.6,126.2z"/>
		<path fill="#010202" d="M176.3,121.2c0,1.6-0.7,2.7-2,3.1c-1.4,0.2-2.2-0.5-2.4-2.4c0-1.8,0.5-2.7,1.8-2.9
			C175.2,118.8,176.1,119.6,176.3,121.2z"/>
	</g>
	<g>
		<path fill="#010202" d="M103,151.2c-1.8,1.3-4.7,2.4-8.5,2.4c-4.7,0-8.9-1.8-11.8-5.1c-2.2-2.3-3.6-5.8-4.2-9.9H75v-2.9h3.2v-0.9
			c0-0.9,0-1.8,0.2-2.5H75v-2.9h3.8c0.7-4,2.4-7.4,4.7-9.8c2.9-3.1,6.7-4.7,11.4-4.7c3.4,0,6,0.9,7.6,1.8l-1.1,3.8
			c-1.4-0.9-3.8-1.6-6.5-1.6c-3.1,0-5.6,1.1-7.6,3.1c-1.8,1.6-2.9,4.3-3.4,7.2H100v2.9H83.3c0,0.7-0.2,1.6-0.2,2.4v1.1h16.6v2.9
			H83.5c0.5,3.2,1.6,5.8,3.1,7.6c2.2,2.2,5.1,3.3,8.1,3.3c3.1,0,5.6-1.1,7.1-1.8L103,151.2z"/>
	</g>
</g>
<g>
	<path fill="#5EC2D2" d="M54.9,44.1c-8.1,0-14.6,6.5-14.6,14.6c0,8.1,6.5,14.7,14.6,14.7c8.1,0,14.7-6.5,14.7-14.7
		C69.6,50.6,63,44.1,54.9,44.1z M57.8,56.4v1.3h-6.9v1.4H58v1.3h-6.9c0.2,1.5,0.7,2.5,1.3,3.1c0.9,0.9,2.2,1.4,3.4,1.4
		c1.3,0,2.3-0.5,2.9-0.7l0.4,1.5c-0.5,0.7-1.8,1.3-3.4,1.3c-2,0-3.8-0.7-4.9-2.2c-0.9-1.1-1.6-2.4-1.8-4.2h-1.4v-1.3h1.4v-1.4h-1.4
		v-1.3h1.6c0.4-1.6,0.9-3.1,2-4.2c1.3-1.3,2.7-2,4.7-2c1.5,0,2.5,0.4,3.3,0.7l-0.5,1.6c-0.5-0.4-1.6-0.7-2.7-0.7
		c-1.3,0-2.3,0.6-3.2,1.3c-0.7,0.7-1.3,1.8-1.5,3.1H57.8z M55.8,46.8c-7,0-12.8,5.8-12.8,12.8c0,3.8,1.6,7.2,4.3,9.6
		c-3.2-2.3-5.4-6.1-5.4-10.7c0-7.2,5.8-13,13-13c4.3,0,8.3,2.2,10.7,5.4C63,48.7,59.6,46.8,55.8,46.8z"/>
	<path fill="#FFFFFF" d="M43,59.7c0,3.8,1.6,7.2,4.3,9.6c-3.2-2.3-5.4-6.1-5.4-10.7c0-7.2,5.8-13,13-13c4.3,0,8.3,2.2,10.7,5.4
		c-2.5-2.4-6-4.2-9.8-4.2C48.8,46.8,43,52.6,43,59.7z"/>
	<path fill="#FFFFFF" d="M58.7,64.2l0.4,1.5c-0.5,0.7-1.8,1.3-3.4,1.3c-2,0-3.8-0.7-4.9-2.2c-0.9-1.1-1.6-2.4-1.8-4.2h-1.4v-1.3h1.4
		v-1.4h-1.4v-1.3h1.6c0.4-1.6,0.9-3.1,2-4.2c1.3-1.3,2.7-2,4.7-2c1.5,0,2.5,0.4,3.3,0.7l-0.5,1.6c-0.5-0.4-1.6-0.7-2.7-0.7
		c-1.3,0-2.3,0.6-3.2,1.3c-0.7,0.7-1.3,1.8-1.5,3.1h6.7v1.3h-6.9v1.4H58v1.3h-6.9c0.2,1.5,0.7,2.5,1.3,3.1c0.9,0.9,2.2,1.4,3.4,1.4
		C57.1,64.9,58.2,64.4,58.7,64.2z"/>
</g>
<g>
	<path fill="#5EC2D2" d="M92.7,23.3c-8.1,0-14.7,6.5-14.7,14.7c0,8.1,6.5,14.7,14.7,14.7c8.1,0,14.6-6.5,14.6-14.7
		C107.4,29.8,100.8,23.3,92.7,23.3z M95.8,35.6v1.3h-7.1v1.5h7.1v1.3h-6.9c0.2,1.5,0.7,2.3,1.3,3.1c0.9,0.9,2.2,1.4,3.4,1.4
		c1.3,0,2.3-0.5,2.9-0.7l0.4,1.6c-0.4,0.5-1.8,1.1-3.2,1.1c-2,0-3.8-0.7-4.9-2.2c-0.9-0.9-1.6-2.4-1.8-4.2h-1.4v-1.3h1.4v-1.5h-1.4
		v-1.3h1.6c0.4-1.6,1.1-3.1,2-4.2c1.3-1.3,2.7-2,4.7-2c1.4,0,2.5,0.4,3.2,0.7L96.5,32c-0.5-0.4-1.6-0.7-2.7-0.7
		c-1.3,0-2.3,0.4-3.3,1.3c-0.7,0.7-1.3,1.8-1.4,3.1H95.8z M93.6,26.2c-7.1,0-12.8,5.8-12.8,12.8c0,3.8,1.6,7.2,4.3,9.6
		c-3.3-2.4-5.4-6.1-5.4-10.7c0-7.2,5.8-13,13-13c4.3,0,8.3,2.2,10.7,5.4C101,27.9,97.6,26.2,93.6,26.2z"/>
	<path fill="#FFFFFF" d="M80.8,39.1c0,3.8,1.6,7.2,4.3,9.6c-3.3-2.4-5.4-6.1-5.4-10.7c0-7.2,5.8-13,13-13c4.3,0,8.3,2.2,10.7,5.4
		c-2.3-2.5-5.8-4.2-9.8-4.2C86.6,26.2,80.8,32,80.8,39.1z"/>
	<path fill="#FFFFFF" d="M96.5,43.4l0.4,1.6c-0.4,0.5-1.8,1.1-3.2,1.1c-2,0-3.8-0.7-4.9-2.2c-0.9-0.9-1.6-2.4-1.8-4.2h-1.4v-1.3h1.4
		v-1.5h-1.4v-1.3h1.6c0.4-1.6,1.1-3.1,2-4.2c1.3-1.3,2.7-2,4.7-2c1.4,0,2.5,0.4,3.2,0.7L96.5,32c-0.5-0.4-1.6-0.7-2.7-0.7
		c-1.3,0-2.3,0.4-3.3,1.3c-0.7,0.7-1.3,1.8-1.4,3.1h6.7v1.3h-7.1v1.5h7.1v1.3h-6.9c0.2,1.5,0.7,2.3,1.3,3.1c0.9,0.9,2.2,1.4,3.4,1.4
		C94.9,44.1,96,43.6,96.5,43.4z"/>
</g>
<g>
	<path fill="#5EC2D2" d="M77.8,89.1c0-0.1-0.1-0.2-0.1-0.3c0-0.1-0.1-0.3-0.1-0.4c0-0.1-0.1-0.3-0.1-0.4c0-0.2-0.1-0.4-0.1-0.5h-1.5
		v-0.9c-0.1,0-0.1,0-0.2,0c-1.4,0.3-3,0.5-4.3,0.9v0.2c0,0.2,0,0.4,0,0.5c0.1,1.3,0.5,2.6,1.1,3.8l0.7-0.1c0.2,0,0.3,0,0.5-0.1
		c0.5-0.1,0.9-0.1,1.4-0.2c0,0,0,0,0,0c0.2,0,0.4-0.1,0.6-0.1c0.9-0.2,1.8-0.2,2.9-0.4C78.3,90.5,78,89.8,77.8,89.1z M94.1,95.1
		c0-0.1,0.1-0.1,0.1-0.2c-3.3-0.2-6.9-0.2-10.8-0.2c-0.5,0-0.9,0-1.3,0c-2.4,0-4.6,0-6.5,0.3c0,0,0,0-0.1,0c-0.1,0-0.3,0-0.4,0h-0.5
		c-0.7-1.1-1.4-2.2-2-3.3c-0.6-1.2-1-2.5-1.1-3.8v0.1c0,0.1,0,0.3,0,0.4c0,0,0,0,0,0c0,0.3,0.1,0.7,0.2,1c0,0.2,0.1,0.3,0.1,0.5
		c0,0.1,0.1,0.3,0.1,0.5c0,0.1,0.1,0.3,0.1,0.4c0.1,0.2,0.1,0.4,0.2,0.5c0.1,0.2,0.2,0.4,0.2,0.5c0.5,1.1,1.2,2.1,1.9,3.2
		c0,0-0.1,0-0.1-0.1c-0.1,0-0.2,0-0.3,0c-0.6,0-1.2,0.2-1.8,0.2c0.1,0.1,0.1,0.2,0.2,0.3c0,0-0.1,0-0.1,0c0.3,0.5,0.8,1,1.3,1.3h19
		C93.1,96.4,93.8,95.9,94.1,95.1h0.1H94.1z M77.8,89.1c0-0.1-0.1-0.2-0.1-0.3c0-0.1-0.1-0.3-0.1-0.4c0-0.1-0.1-0.3-0.1-0.4
		c0-0.2-0.1-0.4-0.1-0.5h-1.5v-0.9c-0.1,0-0.1,0-0.2,0c-1.4,0.3-3,0.5-4.3,0.9v0.2c0,0.2,0,0.4,0,0.5c0.1,1.3,0.5,2.6,1.1,3.8
		l0.7-0.1c0.2,0,0.3,0,0.5-0.1c0.5-0.1,0.9-0.1,1.4-0.2c0,0,0,0,0,0c0.2,0,0.4-0.1,0.6-0.1c0.9-0.2,1.8-0.2,2.9-0.4
		C78.3,90.5,78,89.8,77.8,89.1z M87.5,92.6L87.1,91c0,0-0.1,0.1-0.1,0.1l0.3,1.5c-0.7,0.5-1.9,1-3.4,1.1
		C85.5,93.7,86.7,93.1,87.5,92.6z M78.8,91c-0.1-0.2-0.2-0.3-0.3-0.5c-0.1-0.2-0.2-0.3-0.3-0.5c-0.1-0.2-0.1-0.3-0.2-0.5
		c0,0,0,0,0-0.1c-0.1-0.2-0.1-0.4-0.2-0.6c0-0.1-0.1-0.3-0.1-0.4c0-0.1-0.1-0.3-0.1-0.4c0-0.2-0.1-0.4-0.1-0.5h-1.5v-0.9
		c-0.1,0-0.1,0-0.2,0v0.1c-1.4,0.2-2.9,0.5-4.3,0.9v0c0,0.2,0,0.4,0,0.5c0.1,1.3,0.5,2.6,1.1,3.8l0.7-0.1c0.2,0,0.3,0,0.5-0.1
		c0.4-0.1,0.9-0.1,1.4-0.2c0.2,0,0.5-0.1,0.7-0.1c0.9-0.2,1.8-0.4,2.9-0.4c0,0,0,0.1,0,0.1c0,0,0,0.1,0.1,0.1c0,0.1,0.1,0.1,0.2,0.2
		C78.9,91.3,78.8,91.1,78.8,91z M75.9,84.6v-0.9h-0.2V85h1.4v1.1h0.2v-1.5H75.9z M77.8,89.1c0,0.1,0.1,0.2,0.1,0.3
		c-0.1-0.2-0.1-0.4-0.2-0.6C77.8,88.9,77.8,89,77.8,89.1z M97.4,81.2L97.4,81.2c-1.8-6-7.4-10.3-14.1-10.3c-7.6,0-13.8,5.6-14.7,13
		c0,0.5-0.2,1.1-0.2,1.8c0,0.9,0,1.6,0.2,2.4c0,0,0,0.1,0,0.1c0.2,1.6,0.7,3.1,1.4,4.3c0,0.1,0.1,0.1,0.1,0.2c0.5,1,1.2,1.9,1.9,2.7
		c0,0,0.1,0.1,0.1,0.2c0.3,0.5,0.8,1,1.3,1.3h19c0.5-0.6,1.3-1.1,1.6-1.8l0,0c1.1-1.3,1.8-2.5,2.3-4c0-0.1,0-0.1,0.1-0.2
		c0.7-1.6,1-3.3,1-5.2c0.2-0.1,0.3-0.2,0.3-0.4c0-0.1,0-0.1,0-0.2C98,83.7,97.8,82.5,97.4,81.2z M86.2,84.6h-7v1.5h7v1.3h-6.9
		c0.2,1.5,0.7,2.3,1.3,3.1c0.2,0.2,0.2,0.2,0.4,0.4c0.9,0.7,2,1.1,3.1,1.1h0.1c0.2,0,0.3,0,0.5,0c1-0.1,1.9-0.4,2.3-0.9l0,0.1v0
		l0.3,1.5c-0.7,0.5-1.9,1-3.4,1.1h-0.2c-2,0-3.8-0.7-4.9-2.2c0,0,0.1-0.1,0.1-0.1c0-0.1-0.1-0.3-0.1-0.4c-0.1-0.2-0.2-0.3-0.3-0.5
		c-0.1-0.2-0.2-0.3-0.3-0.5c-0.1-0.2-0.1-0.3-0.2-0.5c0,0,0,0,0-0.1c-0.1-0.2-0.1-0.4-0.2-0.6c0-0.1-0.1-0.3-0.1-0.4
		c0-0.1-0.1-0.3-0.1-0.4c0-0.2-0.1-0.4-0.1-0.5h-1.5v-1.3h1.5v-1.5h-1.5v-1.3h1.6c0.1-0.5,0.2-0.9,0.3-1.2c0-0.1,0-0.1,0.1-0.2
		c0.4-1.1,0.9-1.8,1.6-2.5c1.3-1.3,2.7-2,4.7-2c1.4,0,2.5,0.4,3.3,0.7l-0.5,1.6c-0.5-0.4-1.6-0.7-2.7-0.7c-1.3,0-2.4,0.5-3.2,1.3
		c-0.4,0.4-0.7,0.7-0.9,1.3c-0.2,0.5-0.4,1.1-0.5,1.8h6.7V84.6z M74.3,95.1c-0.9-0.9-1.8-2-2.4-3.1c-0.7-1.3-1.3-2.7-1.4-4.3
		c-0.2-0.7-0.2-1.4-0.2-2c0-0.7,0-1.4,0.2-2.2c1.1-6.2,6.3-10.9,12.8-10.9c4.3,0,8.1,2.2,10.5,5.4c-2.3-2.7-5.8-4.3-9.6-4.3
		c-5.8,0-10.8,4-12.3,9.3c0,0,0,0,0,0.1c-0.4,1.1-0.5,2.3-0.5,3.4v0.9c0,0.2,0,0.4,0,0.5v0.1c0,0.1,0,0.3,0,0.4c0,0,0,0,0,0
		c0,0.3,0.1,0.7,0.2,1c0,0.2,0.1,0.3,0.1,0.5c0,0.1,0.1,0.3,0.1,0.5c0,0.1,0.1,0.3,0.1,0.4c0.1,0.2,0.1,0.4,0.2,0.5
		c0.1,0.2,0.2,0.4,0.2,0.5c0.5,1.1,1.2,2.1,1.9,3.2C74.3,95.2,74.3,95.2,74.3,95.1z M75.9,84.6v-0.9h-0.2V85h1.4v1.1h0.2v-1.5H75.9z
		 M78.8,91c-0.1-0.2-0.2-0.3-0.3-0.5c-0.1-0.2-0.2-0.3-0.3-0.5c-0.1-0.2-0.1-0.3-0.2-0.5c0,0,0,0,0-0.1c-0.1-0.2-0.1-0.4-0.2-0.6
		c0-0.1-0.1-0.3-0.1-0.4c0-0.1-0.1-0.3-0.1-0.4c0-0.2-0.1-0.4-0.1-0.5h-1.5v-0.9c-0.1,0-0.1,0-0.2,0v0.1c-1.4,0.2-2.9,0.5-4.3,0.9v0
		c0,0.2,0,0.4,0,0.5c0.1,1.3,0.5,2.6,1.1,3.8l0.7-0.1c0.2,0,0.3,0,0.5-0.1c0.4-0.1,0.9-0.1,1.4-0.2c0.2,0,0.5-0.1,0.7-0.1
		c0.9-0.2,1.8-0.4,2.9-0.4c0,0,0,0.1,0,0.1c0,0,0,0.1,0.1,0.1c0,0.1,0.1,0.1,0.2,0.2C78.9,91.3,78.8,91.1,78.8,91z M87.5,92.6
		L87.1,91c0,0-0.1,0.1-0.1,0.1l0.3,1.5c-0.7,0.5-1.9,1-3.4,1.1C85.5,93.7,86.7,93.1,87.5,92.6z M74.6,95.4c0.3,0.2,0.5,0.4,0.8,0.6
		c-0.3-0.2-0.5-0.6-0.8-0.9h-0.2c-0.7-1.1-1.4-2.2-2-3.3c-0.6-1.2-1-2.5-1.1-3.8v0.1c0,0.1,0,0.3,0,0.4c0,0,0,0,0,0
		c0,0.3,0.1,0.7,0.2,1c0,0.2,0.1,0.3,0.1,0.5c0,0.1,0.1,0.3,0.1,0.5c0,0.1,0.1,0.3,0.1,0.4c0.1,0.2,0.1,0.4,0.2,0.5
		c0.1,0.2,0.2,0.4,0.2,0.5c0.5,1.1,1.2,2.1,1.9,3.2c0,0,0,0.1,0.1,0.1c0.4,0.4,0.7,0.9,1.1,1.1C75.3,96,75,95.7,74.6,95.4z
		 M77.8,89.1c0-0.1-0.1-0.2-0.1-0.3c0-0.1-0.1-0.3-0.1-0.4c0-0.1-0.1-0.3-0.1-0.4c0-0.2-0.1-0.4-0.1-0.5h-1.5v-0.9
		c-0.1,0-0.1,0-0.2,0c-1.4,0.3-3,0.5-4.3,0.9v0.2c0,0.2,0,0.4,0,0.5c0.1,1.3,0.5,2.6,1.1,3.8l0.7-0.1c0.2,0,0.3,0,0.5-0.1
		c0.5-0.1,0.9-0.1,1.4-0.2c0,0,0,0,0,0c0.2,0,0.4-0.1,0.6-0.1c0.9-0.2,1.8-0.2,2.9-0.4C78.3,90.5,78,89.8,77.8,89.1z M77.8,89.1
		c0-0.1-0.1-0.2-0.1-0.3c0-0.1-0.1-0.3-0.1-0.4c0-0.1-0.1-0.3-0.1-0.4c0-0.2-0.1-0.4-0.1-0.5h-1.5v-0.9c-0.1,0-0.1,0-0.2,0
		c-1.4,0.3-3,0.5-4.3,0.9v0.2c0,0.2,0,0.4,0,0.5c0.1,1.3,0.5,2.6,1.1,3.8l0.7-0.1c0.2,0,0.3,0,0.5-0.1c0.5-0.1,0.9-0.1,1.4-0.2
		c0,0,0,0,0,0c0.2,0,0.4-0.1,0.6-0.1c0.9-0.2,1.8-0.2,2.9-0.4C78.3,90.5,78,89.8,77.8,89.1z"/>
	<path fill="#FFFFFF" d="M97.6,95.5l-4.3,5.4c-3.8-1.5-9-2-15.5-2c-2.4,0-4.5,0-6.5,0.4c-2,0.2-3.8,0.4-5.2,0.7l3.1-3.6
		c0.9-0.4,2-0.5,3.1-0.7c0,0,0.1,0,0.1,0c0.3,0.5,0.8,1,1.3,1.3h19c0.5-0.6,1.3-1.1,1.6-1.8l0,0c0.1,0,0.1,0,0.2,0
		C95.4,95.1,96.5,95.3,97.6,95.5z"/>
	<path fill="#FFFFFF" d="M171.2,104.2c-0.9-2.2-2-4.2-3.4-6c0.9-2.2,1.4-4.7,1.4-7.8c0-2.2-0.2-4-0.7-5.8c-0.4-1.6-1.3-3.3-2.3-4.5
		l-8.3,7.6c1.6,0.5,2.5,1.1,3.3,1.5c0.7,0.5,1.5,1.3,2.3,2.2l-2.5,2.4c-0.9-0.7-2-1.3-3.3-2c-3.4-1.8-6.9-2.7-10.7-2.7
		c-2.9,0-6,0.4-9.4,1.3c-3.3,0.9-7.1,2.3-11,4.5l1.3,2.7l-2.5,1.3c-2-2-4.7-3.4-7.8-4.3c-1.3-0.4-3.6-0.9-6.7-1.5
		c-0.2,0.7-0.2,1.3-0.2,1.6c0,2,0.4,4.3,1.1,7.4c0.7,2.9,1.8,5.8,3.1,8.7l-2.4,2.2c-1.1-1.8-2.4-5.1-3.3-9.8
		c-0.9-4.7-1.5-8.5-1.5-11.4c0.2-0.7,0.2-1.1,0.2-1.4c2,0,4.2,0.4,6.3,0.7c2.2,0.4,4.7,1.1,7.4,2c0.5,0.4,1.4-0.2,2.9-1.5
		c0.2-0.2,0.6-0.4,1.1-0.9c-4.2-2.5-8.9-4-13.8-4.5c-3.5-0.4-8.1-0.7-13.9-0.7c0,0.1-0.1,0.2-0.3,0.4c0,1.9-0.3,3.7-1,5.2h0.3
		c2,0.4,4.2,0.5,6.5,1.1L94,104c-1.3-0.7-3.8-1.3-8-1.6c-4-0.4-8.1-0.5-12.3-0.5c-6.9,0-10.8,0.4-11.9,0.7l6-9l0.5-0.2
		c0.6-0.2,1.1-0.4,1.8-0.5c0,0,0.1,0,0.1,0c0-0.1-0.1-0.1-0.1-0.2c-0.7-1.3-1.3-2.7-1.4-4.3c0,0,0-0.1,0-0.1
		c-7.9,2.2-14.3,5.4-19.5,9.3c-7.2,5.8-11.6,13-12.8,21.9c-0.4,2-0.5,3.8-0.7,5.6s-0.4,3.3-0.4,4.7c0,6,2.9,12.1,8.5,18.5L42.4,168
		c1.6,2.4,4.2,4.5,7.8,6.3s6.9,2.7,9.6,2.7c1.6,0,2.9-0.4,3.6-1.1c0.5-2.9,1.1-5.1,1.3-6.5c0.9-4.7,1.1-7.4,1.1-8.5l3.3-0.4
		c-0.4,2.7,2.2,4.9,7.6,6.7c5.6,1.8,12.1,2.7,19.7,2.7c6.9,0,13.2-0.9,18.6-2.7l0.7,10.9c1.1,0.4,2.5,0.5,4.3,0.5
		c2.7,0,5.2-0.4,7.4-1.3c2.2-0.7,3.4-2,4-3.4l1.6-15c3.8-1.1,6.9-2.9,9.1-5.4c1.4-1.8,2.7-4.3,4-7.6c-0.4,0.2-1.1,0.2-2.2,0.2
		c-3.8,0-7.6-0.7-11.2-1.8c-4.7-1.4-7.6-3.6-9-6.1l2.7-2.2c2,1.8,4.7,3.3,8.3,4.5c3.6,1.3,7.4,2,11.4,2c2.7,0,5.4-0.5,8-1.3
		c2.5-0.9,4.9-2,7-3.6c-2.9-1.1-5.4-2.7-7.2-5.1c-2-2.3-2.9-4.9-2.9-7.8c0-0.5,0.2-1.5,0.4-2.5c0.7-3.4,2.7-6.1,6-8.5
		c3.3-2.2,7.2-3.4,11.8-3.4h1.4c0.9,0.4,1.5,0.4,1.8,0.4C172.3,108.7,171.9,106.3,171.2,104.2z M94.5,153.6c-4.7,0-8.9-1.8-11.8-5.1
		c-2.2-2.3-3.6-5.8-4.2-9.9H75v-2.9h3.2v-0.9c0-0.9,0-1.8,0.2-2.5H75v-2.9h3.8c0.7-4,2.4-7.4,4.7-9.8c2.9-3.1,6.7-4.7,11.4-4.7
		c3.4,0,6,0.9,7.6,1.8l-1.1,3.8c-1.4-0.9-3.8-1.6-6.5-1.6c-3.1,0-5.6,1.1-7.6,3.1c-1.8,1.6-2.9,4.3-3.4,7.2H100v2.9H83.3
		c0,0.7-0.2,1.6-0.2,2.4v1.1h16.6v2.9H83.5c0.5,3.2,1.6,5.8,3.1,7.6c2.2,2.2,5.1,3.3,8.1,3.3c3.1,0,5.6-1.1,7.1-1.8l1.3,3.8
		C101.2,152.5,98.3,153.6,94.5,153.6z M120.2,103.3c-0.4-0.7-1.3-1.8-2.5-2.9c-1.3-1.3-2.5-2-3.6-2.4l0.9-2.7c3.6,0.9,6,2.7,7.4,5.4
		L120.2,103.3z M149,109.6c-0.2,0.9-0.5,1.6-1.3,2.2c-0.7,0.5-1.5,0.9-2.2,0.9c-1.1,0.2-2-0.4-2.7-1.4c-0.7-1.1-1.1-2.5-1.1-4.2
		c0-1.6,0.2-2.9,0.7-4c0.4-1.1,1.3-1.6,2.3-1.8c1.6-0.4,3.1,0.7,4.2,3.2l-3.8,2.4L149,109.6z M164.3,107.1c-0.5,0.9-1.1,1.3-2,1.4
		c-0.9,0.4-1.8,0.2-2.5-0.7c-0.7-0.7-1.1-1.6-1.3-2.5c-0.2-0.9-0.4-1.8-0.4-2.5c0-2.4,0.7-3.6,2.3-4.2c0.7-0.2,1.4-0.2,2.2,0.4
		c0.7,0.4,1.3,1.1,1.6,2l-3.1,2.2l3.8,2.2C164.9,106,164.7,106.5,164.3,107.1z"/>
	<path fill="#FFFFFF" d="M87,91.1l0.3,1.5c-0.7,0.5-1.9,1-3.4,1.1h-0.1c-2,0-3.7-0.7-4.8-2.2c0,0-0.1-0.1-0.1-0.1
		c0-0.1-0.1-0.3-0.1-0.4c-0.6-0.7-0.9-1.6-1.2-2.6c0-0.1-0.1-0.3-0.1-0.4c0-0.2-0.1-0.4-0.1-0.5h-1.5v-0.9h1.3v-0.4h0.2v-1.5h-1.5
		v-0.9h1.6v-0.2c0.2-0.5,0.2-1.1,0.4-1.4c0,0,0,0-0.1,0c0-0.1,0-0.1,0.1-0.2c0.4-1.1,0.9-1.8,1.6-2.5c1.3-1.3,2.7-2,4.7-2
		c1.4,0,2.5,0.4,3.3,0.7l-0.5,1.6c-0.5-0.4-1.6-0.7-2.7-0.7c-1.3,0-2.4,0.5-3.2,1.3c-0.4,0.4-0.7,0.7-0.9,1.3
		c-0.2,0.5-0.4,1.1-0.5,1.8h0c0,0.1,0,0.1,0,0.2h6.7v1.1h-7v1.5h7v1.3h-6.9c0.2,1.5,0.7,2.3,1.3,3.1c0.2,0.2,0.2,0.2,0.4,0.4
		c0.9,0.7,2,1.1,3.1,1.1h0.1c0.2,0,0.3,0,0.5,0C85.6,91.8,86.4,91.5,87,91.1z"/>
	<path fill="#FFFFFF" d="M93.8,78.1c-2.3-2.7-5.8-4.3-9.6-4.3c-5.8,0-10.8,4-12.3,9.3c-0.1,0-0.1,0-0.2,0.1
		c-0.4,1.1-0.5,2.3-0.5,3.4v0.9c0.1,0,0.1,0,0.2,0v0c0,1.6,0.4,3.1,1.1,4.5c0.5,1.1,1.2,2.1,1.9,3.2c0,0-0.1,0-0.1-0.1
		c-0.9-0.9-1.8-2-2.4-3.1c-0.7-1.3-1.3-2.7-1.4-4.3c-0.2-0.7-0.2-1.4-0.2-2c0-0.7,0-1.4,0.2-2.2c1.1-6.2,6.3-10.9,12.8-10.9
		C87.7,72.7,91.5,74.9,93.8,78.1z"/>
</g>
</svg>
