<?xml version="1.0" encoding="utf-8"?>
<!-- Generator: Adobe Illustrator 18.1.1, SVG Export Plug-In . SVG Version: 6.00 Build 0)  -->
<!DOCTYPE svg PUBLIC "-//W3C//DTD SVG 1.1//EN" "http://www.w3.org/Graphics/SVG/1.1/DTD/svg11.dtd">
<svg version="1.1" id="Calque_1" xmlns="http://www.w3.org/2000/svg" xmlns:xlink="http://www.w3.org/1999/xlink" x="0px" y="0px"
	 viewBox="0 0 219.6 323.9" enable-background="new 0 0 219.6 323.9" xml:space="preserve">
<g>
	<path fill="#FFFFFF" d="M144.6,172.5H27.8c-11.4-19.7-15.8-42.3-13.3-56.1c0.2-1.3,1.1-2.4,2.2-3l84.8-43.7c0.6-0.3,1.3-0.5,2-0.5
		c0.6,0,1.2,0.1,1.8,0.4c20.7,9.7,44.3,44.4,44.9,76.2C150.3,153.7,149.1,163.1,144.6,172.5z"/>
	<g>
		<g>
			<linearGradient id="SVGID_1_" gradientUnits="userSpaceOnUse" x1="98.6917" y1="33.3366" x2="107.7011" y2="33.3366">
				<stop  offset="0" style="stop-color:#41BBC7"/>
				<stop  offset="0.6061" style="stop-color:#2FAED3"/>
				<stop  offset="1" style="stop-color:#22A5D9"/>
			</linearGradient>
			<path fill="url(#SVGID_1_)" d="M103.4,58.3C103.5,58.3,103.5,58.3,103.4,58.3c2.4,0,4.3-2,4.3-4.3l-0.5-41.3
				c0-2.3-1.9-4.2-4.3-4.2c0,0,0,0-0.1,0c-2.4,0-4.2,2-4.2,4.3l0.5,41.3C99.2,56.4,101.1,58.3,103.4,58.3z"/>
			<linearGradient id="SVGID_2_" gradientUnits="userSpaceOnUse" x1="114.9426" y1="35.0499" x2="140.7812" y2="35.0499">
				<stop  offset="0" style="stop-color:#41BBC7"/>
				<stop  offset="0.6061" style="stop-color:#2FAED3"/>
				<stop  offset="1" style="stop-color:#22A5D9"/>
			</linearGradient>
			<path fill="url(#SVGID_2_)" d="M117.4,57.7c0.6,0.3,1.2,0.4,1.8,0.4c1.6,0,3.2-0.9,3.9-2.5l17.3-37.5c1-2.1,0.1-4.7-2.1-5.7
				c-2.1-1-4.7-0.1-5.7,2.1L115.3,52C114.3,54.2,115.3,56.7,117.4,57.7z"/>
			<linearGradient id="SVGID_3_" gradientUnits="userSpaceOnUse" x1="65.2242" y1="35.624" x2="91.9323" y2="35.624">
				<stop  offset="0" style="stop-color:#41BBC7"/>
				<stop  offset="0.6061" style="stop-color:#2FAED3"/>
				<stop  offset="1" style="stop-color:#22A5D9"/>
			</linearGradient>
			<path fill="url(#SVGID_3_)" d="M83.8,56.1c0.7,1.5,2.3,2.4,3.8,2.4c0.6,0,1.3-0.1,1.9-0.4c2.1-1,3-3.6,2-5.7L73.3,15.2
				c-1-2.1-3.6-3-5.7-2c-2.1,1-3,3.6-2,5.7L83.8,56.1z"/>
			<path d="M206.1,267c-1.1-2.1-3.6-2.9-5.8-1.8l-37.8,19.5l-44-85.3c13.4-7.8,21.5-17.3,26.1-26.8c4.5-9.4,5.8-18.8,5.6-26.8
				c-0.6-31.8-24.2-66.5-44.9-76.2c-0.6-0.3-1.2-0.4-1.8-0.4c-0.7,0-1.3,0.2-2,0.5l-84.8,43.7c-1.2,0.6-2,1.7-2.2,3
				c-2.5,13.8,2,36.5,13.3,56.1c2.7,4.8,5.9,9.4,9.4,13.6c12.9,15.5,28.9,23.7,46.1,23.7c4.5,0,9-0.5,13.6-1.6
				c4.6-1.1,9.3-2.7,14-4.9l44,85.3l-37.1,19.1c-2.1,1.1-2.9,3.6-1.8,5.7c0.8,1.5,2.2,2.3,3.8,2.3c0.7,0,1.3-0.2,2-0.5l82.5-42.6
				C206.3,271.7,207.2,269.1,206.1,267z M39.2,174.6c-0.2-0.3-0.5-0.7-0.7-1c-0.2-0.3-0.5-0.7-0.7-1c-0.3-0.5-0.6-1-0.9-1.5
				c-0.3-0.5-0.6-1-0.9-1.5c-0.3-0.5-0.6-1-0.9-1.4c-0.6-1-1.2-2.1-1.7-3.1c-0.5-1-1-2-1.5-3c-1.3-2.6-2.4-5.3-3.5-8
				c-0.2-0.5-0.4-1-0.6-1.6c-0.2-0.5-0.4-1-0.6-1.6c-0.4-1-0.7-2-1-2.9c-0.4-1.2-0.7-2.3-1-3.4c-0.1-0.5-0.3-0.9-0.4-1.4
				c-0.1-0.5-0.3-1-0.4-1.5c-0.1-0.5-0.2-1-0.4-1.5c-0.1-0.4-0.2-0.9-0.3-1.3c-0.5-2.4-0.9-4.8-1.2-7.1c0-0.4-0.1-0.8-0.1-1.1
				c-0.1-1.1-0.2-2.1-0.2-3.1c0-0.4,0-0.7,0-1c-0.1-2.3,0-4.4,0.2-6.4l80.9-41.7c11,6.1,24.8,22,32.4,41
				c-2.2,4.6-9.2,16.4-24.1,24.1c-9.5,4.9-16.3,5-23.5,5c-7.2,0.1-14.7,0.1-24.2,5.2c-0.7,0.4-1.4,0.8-2.1,1.2
				c-0.9,0.5-1.7,1-2.5,1.6c-0.4,0.2-0.8,0.5-1.1,0.7c-0.3,0.2-0.6,0.4-1,0.7c-0.3,0.2-0.7,0.4-1,0.7c-0.2,0.1-0.4,0.2-0.5,0.4
				c-0.4,0.3-0.7,0.5-1.1,0.8c-0.4,0.3-0.7,0.6-1.1,0.8c0,0,0,0-0.1,0.1c-0.5,0.4-0.9,0.7-1.4,1.1c-1.3,1.1-2.6,2.2-3.8,3.3
				c-0.3,0.2-0.5,0.5-0.8,0.7c-2.2,2-4,4-5.7,5.8c-0.2,0.3-0.5,0.6-0.7,0.8c-0.1,0.1-0.2,0.2-0.2,0.3
				C40.3,173.2,39.7,173.9,39.2,174.6z"/>
			<path fill="#FFFFFF" d="M135.9,119.2c-2.2,4.6-9.2,16.4-24.1,24.1c-9.5,4.9-16.3,5-23.5,5c-7.2,0.1-14.7,0.1-24.2,5.2
				c-11.5,6.2-20,15-24.9,21c-12.5-18.1-18.2-40.9-16.6-54.7l80.9-41.7C114.4,84.3,128.2,100.2,135.9,119.2z"/>
		</g>
	</g>
</g>
</svg>
