<?xml version="1.0" encoding="utf-8"?>
<!-- Generator: Adobe Illustrator 18.1.1, SVG Export Plug-In . SVG Version: 6.00 Build 0)  -->
<!DOCTYPE svg PUBLIC "-//W3C//DTD SVG 1.1//EN" "http://www.w3.org/Graphics/SVG/1.1/DTD/svg11.dtd">
<svg version="1.1" id="Calque_1" xmlns="http://www.w3.org/2000/svg" xmlns:xlink="http://www.w3.org/1999/xlink" x="0px" y="0px"
	 viewBox="0 0 841.9 322.4" enable-background="new 0 0 841.9 322.4" xml:space="preserve">
<path fill="#010202" d="M339,142.9c-2.5,4-5.4,7.6-8.7,10.9c-3.4,3.3-7.1,6.1-11.2,8.4c-4.1,2.4-8.5,4.2-13.2,5.4
	c-4.7,1.3-9.6,1.9-14.6,1.9c-7.8,0-15.1-1.5-21.9-4.4c-6.8-3-12.7-7-17.8-12.1c-5.1-5.1-9.1-11.1-12-17.9c-3-6.8-4.4-14.1-4.4-21.9
	c0-7.8,1.5-15.1,4.4-21.9c3-6.8,7-12.8,12-17.9c5.1-5.1,11-9.2,17.8-12.1c6.8-3,14.1-4.4,21.9-4.4c5,0,9.9,0.6,14.6,1.9
	c4.7,1.3,9.1,3.1,13.2,5.4c4.1,2.4,7.8,5.2,11.2,8.5c3.4,3.3,6.3,7,8.7,11L321.9,101c-1.2-3.1-2.8-5.9-4.8-8.4c-2-2.6-4.3-4.8-7-6.6
	c-2.7-1.8-5.6-3.3-8.7-4.3c-3.2-1-6.5-1.5-10-1.5c-4.5,0-8.8,0.9-12.8,2.6c-4,1.7-7.5,4.1-10.5,7.1c-3,3-5.3,6.5-7.1,10.5
	c-1.7,4-2.6,8.3-2.6,12.9s0.9,8.9,2.6,12.9c1.7,4,4.1,7.5,7.1,10.5c3,3,6.5,5.4,10.5,7.1c4,1.7,8.3,2.6,12.8,2.6
	c3.5,0,6.8-0.5,10-1.5c3.2-1,6.1-2.5,8.7-4.3c2.7-1.8,5-4,7-6.5c2-2.5,3.6-5.3,4.8-8.4L339,142.9z"/>
<path fill="#010202" d="M347.6,169.8V57.2h23.5v89H424v23.6H347.6z"/>
<path fill="#010202" d="M461.3,57.3v112.4H438V57.3H461.3z"/>
<path fill="#010202" d="M576,142.9c-2.5,4-5.4,7.6-8.7,10.9c-3.4,3.3-7.1,6.1-11.2,8.4c-4.1,2.4-8.5,4.2-13.2,5.4
	c-4.7,1.3-9.6,1.9-14.6,1.9c-7.8,0-15.1-1.5-21.9-4.4c-6.8-3-12.7-7-17.8-12.1c-5.1-5.1-9.1-11.1-12-17.9c-3-6.8-4.4-14.1-4.4-21.9
	c0-7.8,1.5-15.1,4.4-21.9c3-6.8,7-12.8,12-17.9c5.1-5.1,11-9.2,17.8-12.1c6.8-3,14.1-4.4,21.9-4.4c5,0,9.9,0.6,14.6,1.9
	c4.7,1.3,9.1,3.1,13.2,5.4c4.1,2.4,7.8,5.2,11.2,8.5c3.4,3.3,6.3,7,8.7,11L558.9,101c-1.2-3.1-2.8-5.9-4.8-8.4c-2-2.6-4.3-4.8-7-6.6
	c-2.7-1.8-5.6-3.3-8.7-4.3c-3.2-1-6.5-1.5-10-1.5c-4.5,0-8.8,0.9-12.8,2.6c-4,1.7-7.5,4.1-10.5,7.1c-3,3-5.3,6.5-7.1,10.5
	c-1.7,4-2.6,8.3-2.6,12.9s0.9,8.9,2.6,12.9c1.7,4,4.1,7.5,7.1,10.5c3,3,6.5,5.4,10.5,7.1c4,1.7,8.3,2.6,12.8,2.6
	c3.5,0,6.8-0.5,10-1.5c3.2-1,6.1-2.5,8.7-4.3c2.7-1.8,5-4,7-6.5c2-2.5,3.6-5.3,4.8-8.4L576,142.9z"/>
<path fill="#010202" d="M675.3,57c0,5.7-0.4,11-1.2,15.9c-0.8,4.9-1.8,9.3-3.1,13.3c-1.3,4-2.7,7.7-4.4,10.9
	c-1.6,3.2-3.3,6.1-4.9,8.5c-4,5.8-8.4,10.5-13.3,14.1c4.8,0,9.1,0.7,12.7,2.1c3.7,1.4,6.9,3.3,9.6,5.7c2.7,2.4,5,5,6.8,8.1
	c1.8,3,3.4,6.1,4.6,9.1c2.8,7.4,4.4,15.7,4.9,25h-23.2c0-3.4-0.4-6.4-1.1-9c-0.7-2.6-1.6-4.9-2.8-6.8c-1.1-1.9-2.4-3.6-3.8-4.9
	c-1.4-1.3-2.9-2.5-4.4-3.4c-3.5-2-7.5-3.2-12-3.5h-27.8v27.6h-23V57h23v51.2c4.8,0,9.1-0.7,12.8-2.2c3.7-1.5,7-3.4,9.7-5.8
	c2.8-2.4,5.1-5.1,7.1-8.1c2-3.1,3.7-6.2,5-9.5c3.1-7.5,5-16,5.8-25.6H675.3z"/>
<path fill="#010202" stroke="#000000" stroke-width="2.1306" stroke-miterlimit="10" d="M806,169.6l-8-9.5
	c-5.7,4.6-13,10.4-28.2,10.4c-24.1,0-36.1-12.6-36.1-33.1c0-14,10.1-23,19.6-29.3c-4.4-5.1-10.9-12.7-10.9-23.2
	c0-14.9,10.9-25.5,29.1-25.5c17.2,0,27.9,10.9,27.9,25.8c0,8.4-4.4,14.1-11.2,19l-7.8,5.7l18.4,21.8c3.5-4.8,5.2-11.4,5.5-19.2h18.9
	c-0.8,14.1-4,25.3-11.7,33.9l19.6,23.2H806z M764.2,120.4c-6.6,4.6-11,8.9-11,16.7c0,9.1,7.4,15.3,16.6,15.3c6.4,0,11.2-2,16.3-6.4
	L764.2,120.4z M771.7,76.5c-6,0-9.1,3.8-9.1,8.9c0,4,3.4,7.8,7.2,12.3l4.6-3.1c3.5-2.5,6.3-5.4,6.3-9.2
	C780.7,80.3,777.4,76.5,771.7,76.5z"/>
<g>
	<path fill="#010202" d="M339.3,287.1c-2.5,4-5.4,7.6-8.7,10.9c-3.4,3.3-7.1,6.1-11.2,8.4c-4.1,2.4-8.5,4.2-13.2,5.4
		c-4.7,1.3-9.6,1.9-14.6,1.9c-7.8,0-15.1-1.5-21.9-4.4c-6.8-3-12.7-7-17.8-12.1c-5.1-5.1-9.1-11.1-12-17.9c-3-6.8-4.4-14.1-4.4-21.9
		c0-7.8,1.5-15.1,4.4-21.9c3-6.8,7-12.8,12-17.9c5.1-5.1,11-9.2,17.8-12.1c6.8-3,14.1-4.4,21.9-4.4c5,0,9.9,0.6,14.6,1.9
		c4.7,1.3,9.1,3.1,13.2,5.4c4.1,2.4,7.8,5.2,11.2,8.5c3.4,3.3,6.3,7,8.7,11l-17.2,17.2c-1.2-3.1-2.8-5.9-4.8-8.4
		c-2-2.6-4.3-4.8-7-6.6c-2.7-1.8-5.6-3.3-8.7-4.3c-3.2-1-6.5-1.5-10-1.5c-4.5,0-8.8,0.9-12.8,2.6c-4,1.7-7.5,4.1-10.5,7.1
		c-3,3-5.3,6.5-7.1,10.5c-1.7,4-2.6,8.3-2.6,12.9c0,4.6,0.9,8.9,2.6,12.9c1.7,4,4.1,7.5,7.1,10.5c3,3,6.5,5.4,10.5,7.1
		c4,1.7,8.3,2.6,12.8,2.6c3.5,0,6.8-0.5,10-1.5c3.2-1,6.1-2.5,8.7-4.3c2.7-1.8,5-4,7-6.5c2-2.5,3.6-5.3,4.8-8.4L339.3,287.1z"/>
	<path fill="#010202" d="M438.4,201.5v112.6h-23.6v-41.3h-39.1v41.3h-23.5V201.5h23.5v47.9h39.1v-47.9H438.4z"/>
	<path fill="#010202" d="M480.7,224.7v22.9h50.6V271h-50.6v19.3h52.6v23.5h-75.9V201.4h75.9v23.3H480.7z"/>
	<path fill="#010202" d="M575.4,224.7v22.9H626V271h-50.6v19.3H628v23.5H552V201.4H628v23.3H575.4z"/>
	<path fill="#010202" d="M728.1,273.9c3,2.7,5.5,5.7,7.7,9c2.1,3.3,3.9,6.7,5.3,10.3c1.4,3.5,2.4,7.1,3,10.7c0.6,3.6,0.9,7,0.9,10.1
		h-11.5h-11.7c0-0.7-0.1-1.9-0.2-3.6c-0.2-1.7-0.5-3.6-1-5.6c-0.5-2-1.3-4.1-2.3-6.3c-1-2.1-2.4-4.1-4.2-6c-1.8-1.8-4-3.3-6.7-4.4
		c-2.7-1.1-5.9-1.7-9.7-1.7H670V314h-23V201.2h50.8c0.4,0,1.5,0.1,3.4,0.2c1.8,0.2,4.1,0.6,6.7,1.4c2.6,0.8,5.4,1.9,8.5,3.5
		c3.1,1.5,6,3.7,8.9,6.6c8.5,8.5,12.7,20.1,12.7,35c0,5.8-0.9,10.9-2.7,15.2C733.5,267.3,731.1,271,728.1,273.9z M697.8,263.2
		c1.2,0,2.8-0.2,4.8-0.5c1.9-0.4,3.8-1.1,5.7-2.1c1.8-1.1,3.4-2.6,4.7-4.6c1.3-2,1.9-4.7,1.9-8.1c0-5.3-0.7-9.5-2.1-12.7
		c-1.4-3.1-3-5.5-4.9-7.1c-1.9-1.6-3.8-2.6-5.8-3.1c-1.9-0.5-3.4-0.7-4.4-0.7H670v38.8H697.8z"/>
	<path fill="#010202" d="M790,315c-5.7,0-11.1-0.9-16.1-2.8c-5-1.8-9.4-4.3-13.3-7.4c-3.8-3.1-6.9-6.7-9.1-10.8
		c-2.2-4.1-3.3-8.5-3.3-13.1h23.3c0,0.9,0.4,2,1.3,3.2c0.9,1.2,2.1,2.4,3.7,3.5c1.6,1.1,3.5,2.1,5.8,2.8c2.2,0.8,4.8,1.2,7.7,1.2
		c4.6,0,8.2-0.5,10.9-1.6c2.7-1.1,4.7-2.2,6-3.5c1.3-1.3,2.4-3,3.1-5.1c0-1.2-0.1-2.5-0.2-3.7c-0.2-1.2-0.6-2.4-1.5-3.4
		c-1.4-1.7-3.9-3.1-7.4-4.1c-3.5-1-7.8-1.5-12.9-1.5c-3.9,0-7.4-0.4-10.5-1.1c-3.1-0.7-5.9-1.6-8.2-2.7c-2.4-1.1-4.4-2.3-6.1-3.6
		c-1.7-1.3-3.2-2.7-4.3-4c-2.3-2.5-4-5-5.2-7.7c-1.2-2.7-2.1-5.3-2.6-7.7c-0.5-2.4-0.8-4.5-0.8-6.3c-0.1-1.8-0.1-3.1-0.1-3.9
		c0-0.7,0.1-1.9,0.3-3.5c0.2-1.6,0.6-3.3,1.3-5.3c0.7-1.9,1.6-4,2.8-6.2c1.2-2.2,2.8-4.3,4.8-6.4c7.5-7.5,17.8-11.2,31.1-11.2
		c13.1,0,23.3,3.8,30.7,11.5c2.6,2.7,4.6,5.4,6,8.3c1.4,2.9,2.5,5.5,3.1,8c0.6,2.5,1,4.6,1.1,6.3c0.1,1.7,0.2,2.8,0.2,3.2l-23.3-0.8
		v0.3c0-1.2-0.2-2.6-0.6-4.2c-0.4-1.6-1.2-3.1-2.5-4.4c-1.2-1.4-3-2.5-5.4-3.5c-2.4-0.9-5.4-1.4-9.2-1.4c-3.7,0-6.6,0.4-8.8,1.1
		c-2.2,0.7-3.9,1.6-5.1,2.6c-1.2,1-2,2.1-2.4,3.2c-0.4,1.1-0.6,2-0.6,2.8v1.1l-0.2,0.2c0,1,0.1,2,0.3,3.1c0.2,0.8,0.5,1.7,0.8,2.7
		c0.3,1,0.9,1.9,1.7,2.7c2.4,2.4,6.3,3.5,11.8,3.5c14.5,0,25.7,3.1,33.6,9.4s11.8,15.2,11.8,26.6c0,3.3-0.8,6.9-2.4,10.7
		c-1.6,3.9-4.1,7.5-7.5,10.9c-3.4,3.4-7.9,6.2-13.4,8.4C804.5,313.9,797.8,315,790,315z"/>
</g>
<g>
	<path fill="#FFFFFF" stroke="#000000" stroke-miterlimit="10" d="M133.5,117.3c-2.2,4.6-9.2,16.4-24.1,24.1c-9.5,4.9-16.3,5-23.4,5
		c-7.2,0.1-14.7,0.1-24.2,5.2c-11.5,6.2-20,15-24.9,21c-12.5-18.1-18.2-40.9-16.7-54.7l80.9-41.7C112.1,82.3,125.9,98.3,133.5,117.3
		z"/>
	<g>
		<g>
			<linearGradient id="SVGID_1_" gradientUnits="userSpaceOnUse" x1="96.3468" y1="31.3612" x2="105.3562" y2="31.3612">
				<stop  offset="0" style="stop-color:#41BBC7"/>
				<stop  offset="0.6061" style="stop-color:#2FAED3"/>
				<stop  offset="1" style="stop-color:#22A5D9"/>
			</linearGradient>
			<path fill="url(#SVGID_1_)" d="M101.1,56.3C101.1,56.3,101.1,56.3,101.1,56.3c2.4,0,4.3-2,4.3-4.3l-0.5-41.3
				c0-2.3-1.9-4.2-4.3-4.2c0,0,0,0-0.1,0c-2.4,0-4.2,2-4.2,4.3l0.5,41.3C96.9,54.4,98.8,56.3,101.1,56.3z"/>
			<linearGradient id="SVGID_2_" gradientUnits="userSpaceOnUse" x1="112.5977" y1="33.0745" x2="138.4363" y2="33.0745">
				<stop  offset="0" style="stop-color:#41BBC7"/>
				<stop  offset="0.6061" style="stop-color:#2FAED3"/>
				<stop  offset="1" style="stop-color:#22A5D9"/>
			</linearGradient>
			<path fill="url(#SVGID_2_)" d="M115.1,55.7c0.6,0.3,1.2,0.4,1.8,0.4c1.6,0,3.2-0.9,3.9-2.5L138,16.1c1-2.1,0.1-4.7-2.1-5.7
				c-2.1-1-4.7-0.1-5.7,2.1L113,50.1C112,52.2,112.9,54.7,115.1,55.7z"/>
			<linearGradient id="SVGID_3_" gradientUnits="userSpaceOnUse" x1="62.8793" y1="33.6487" x2="89.5874" y2="33.6487">
				<stop  offset="0" style="stop-color:#41BBC7"/>
				<stop  offset="0.6061" style="stop-color:#2FAED3"/>
				<stop  offset="1" style="stop-color:#22A5D9"/>
			</linearGradient>
			<path fill="url(#SVGID_3_)" d="M81.5,54.1c0.7,1.5,2.3,2.4,3.8,2.4c0.6,0,1.3-0.1,1.9-0.4c2.1-1,3-3.6,2-5.7L71,13.2
				c-1-2.1-3.6-3-5.7-2c-2.1,1-3,3.6-2,5.7L81.5,54.1z"/>
			<path fill="#010202" d="M203.7,265c-1.1-2.1-3.6-2.9-5.7-1.8l-37.8,19.5l-44-85.3c10.7-6.2,18-13.5,22.8-21.1
				c7.2-11.2,9-22.9,8.8-32.6c-0.6-31.8-24.2-66.5-44.9-76.2c-1.2-0.6-2.6-0.5-3.8,0.1l-84.8,43.7c-1.2,0.6-2,1.7-2.2,3
				c-2.8,15.2,3,41,16.9,61.9c1.8,2.7,3.8,5.3,5.8,7.8c12.9,15.5,28.9,23.7,46.2,23.7c4.4,0,9-0.5,13.6-1.6c4.6-1.1,9.3-2.7,14-4.9
				l44,85.3l-37.1,19.1c-2.1,1.1-2.9,3.7-1.8,5.7c0.8,1.5,2.2,2.3,3.8,2.3c0.7,0,1.3-0.2,1.9-0.5l82.5-42.6
				C204,269.7,204.8,267.1,203.7,265z M20.2,118l80.9-41.7c11,6.1,24.8,22,32.4,41c-2.2,4.6-9.2,16.4-24.1,24.1
				c-9.5,4.9-16.3,5-23.4,5c-7.2,0.1-14.7,0.1-24.2,5.2c-11.5,6.2-20,15-24.9,21C24.3,154.5,18.6,131.7,20.2,118z"/>
		</g>
	</g>
</g>
</svg>
