<?xml version="1.0" encoding="utf-8"?>
<!-- Generator: Adobe Illustrator 18.1.1, SVG Export Plug-In . SVG Version: 6.00 Build 0)  -->
<!DOCTYPE svg PUBLIC "-//W3C//DTD SVG 1.1//EN" "http://www.w3.org/Graphics/SVG/1.1/DTD/svg11.dtd">
<svg version="1.1" id="Calque_1" xmlns="http://www.w3.org/2000/svg" xmlns:xlink="http://www.w3.org/1999/xlink" x="0px" y="0px"
	 viewBox="0 0 200 200" enable-background="new 0 0 200 200" xml:space="preserve">
<g id="Capa_4_1_">
	<g>
		<path fill="#010202" d="M144.9,38.6c-7.4-1.8-14.8,2.7-16.6,10.1c-1.8,7.4,2.7,14.8,10.1,16.5c7.4,1.8,14.8-2.7,16.6-10
			C156.7,47.9,152.3,40.5,144.9,38.6z"/>
		<path fill="#010202" d="M129.7,118.8l14.2-34.1c2.4-5.9-0.4-12.7-6.3-15.1c-2-0.8-4.2-1-6.2-0.7l0-0.1l-22.1,3.5l-4.8-4.1l-9-7.7
			c0,0,0,0,0,0l-2.3-1.9h0c0,0,0,0-0.1,0l-1-0.8L91,56.6l-0.3,0.3l-1.2,4.9l-2.9-0.8l-1.3,1.3l0.1,0.1l18,20c1.1,1.1,2.5,1.6,4,1.6
			c0.3,0,0.6,0,0.8-0.1l22.1-3.2l-11.2,3l-10.8,26c-0.1,0.2-0.1,0.3-0.1,0.5l-19.5,30.2c-0.9,1.4-1.3,3.2-1.1,4.9l4.2,31.6l14.4-1.9
			l-3.9-28.9l15.6-23.5l-4.2,7.8l-1.7,16.1c-0.1,1.1,0.1,2.1,0.5,3.1l11.4,29.7l13.5-5.2l-10.8-28.2l2.9-26.8
			C129.5,119.1,129.6,119,129.7,118.8z"/>
	</g>
</g>
<path fill="#5CC1D2" d="M93.3,50.1c-0.5-0.1-0.9,0.1-1,0.6l0,0.1l-1.6,6.1l-1.2,4.9l-2.9-0.8l-1.5-0.4c-0.1-0.3-0.2-0.9,0.2-1.3
	c3.2-2.9,4.5-7.9,4.8-9.1c0-0.2,0-0.3,0.1-0.3c0.1-0.5-0.2-0.9-0.6-1c-0.4-0.1-0.9,0.2-1,0.6l-0.1,0.2v0c-0.3,1.1-1.6,5.7-4.3,8.2
	c-1.2,1.1-0.9,2.9-0.5,3.7c0.1,0.3,0.4,0.4,0.5,0.5l1.2,0.3l4.5,1.2c0.5,0.1,0.9-0.1,1-0.6l1.4-5.3l1.7-6.6l0,0
	C94,50.7,93.8,50.2,93.3,50.1z M63.6,27.4L58.4,20c-0.2-0.3-0.8-0.4-1.2-0.2c-0.4,0.2-0.4,0.8-0.2,1.1l5.3,7.5
	c0.1,0.1,0.2,0.3,0.4,0.3c0.2,0.1,0.5,0,0.7-0.1C63.8,28.4,63.9,27.8,63.6,27.4z M60.2,40.4C60,40,59.5,39.8,59,40l-8.2,4
	c-0.4,0.1-0.6,0.7-0.4,1.1c0.1,0.3,0.3,0.4,0.5,0.5c0.2,0.1,0.4,0,0.6,0l8.2-4C60.2,41.4,60.3,40.9,60.2,40.4z M59.2,33l-8.9-2.3
	c-0.5-0.1-0.9,0.1-1,0.6c-0.1,0.4,0.1,0.9,0.6,1.1l8.9,2.3c0.5,0.1,0.9-0.2,1-0.6C59.9,33.6,59.6,33.1,59.2,33z M97.1,34.6
	l-10.7-2.8L73.6,19.9c-0.2-0.3-0.6-0.3-0.8-0.2c-0.3,0.1-0.5,0.3-0.6,0.6L69.7,30l-3.2,12.4l-2.3,8.9c-0.1,0.3,0,0.6,0.2,0.8
	c0.1,0.1,0.2,0.2,0.4,0.2c0.2,0.1,0.3,0,0.4,0l16.5-4.2l6.6,1.7v0l1.6,0.4l2.3,0.6l0.6,0.2c0.3,0.1,0.7,0.1,1.1,0.2
	c4,0.5,7.7-2.1,8.8-6.4C103.9,40.1,101.4,35.7,97.1,34.6z M81.4,46.5l-15.1,3.8l7.3-28.2l11.3,10.6c0,0.1,0,0.1,0.1,0.2L81.4,46.5z
	 M101.1,44.4c-1,3.7-4.4,5.8-7.8,5L83,46.7l3.4-13.2l10.2,2.6C100.1,37.1,102,40.6,101.1,44.4z M70.4,30.1c-0.2,0-0.5-0.1-0.7-0.1
	c-3.1-0.5-6,1.5-6.9,4.8c-0.9,3.4,0.7,6.5,3.7,7.6c0.2,0.1,0.4,0.2,0.6,0.2l0.8,0.2l3.2-12.5L70.4,30.1z M64.5,35.3
	c0.6-2.4,2.5-3.8,4.6-3.7l-2.4,9.1C64.8,39.8,63.8,37.7,64.5,35.3z"/>
</svg>
