<?xml version="1.0" encoding="utf-8"?>
<!-- Generator: Adobe Illustrator 18.1.1, SVG Export Plug-In . SVG Version: 6.00 Build 0)  -->
<!DOCTYPE svg PUBLIC "-//W3C//DTD SVG 1.1//EN" "http://www.w3.org/Graphics/SVG/1.1/DTD/svg11.dtd">
<svg version="1.1" id="Calque_1" xmlns="http://www.w3.org/2000/svg" xmlns:xlink="http://www.w3.org/1999/xlink" x="0px" y="0px"
	 viewBox="0 0 14.9 12.1" enable-background="new 0 0 14.9 12.1" xml:space="preserve">
<g>
	<rect x="7.4" y="0" fill="#CDCCCC" width="0.6" height="0.6"/>
	<rect x="7.4" y="0.6" fill="#CDCCCC" width="0.6" height="0.6"/>
	<rect x="7.4" y="1.1" fill="#CDCCCC" width="0.6" height="0.6"/>
	<rect x="8" y="0.6" fill="#CDCCCC" width="0.6" height="0.6"/>
	<rect x="7.4" y="0.6" fill="#CDCCCC" width="0.6" height="0.6"/>
	<rect x="6.9" y="0.6" fill="#CDCCCC" width="0.6" height="0.6"/>
</g>
<g>
	<rect x="11.4" y="2.9" fill="#CDCCCC" width="0.6" height="0.6"/>
	<rect x="11.4" y="3.4" fill="#CDCCCC" width="0.6" height="0.6"/>
	<rect x="11.4" y="4" fill="#CDCCCC" width="0.6" height="0.6"/>
	<rect x="12" y="3.4" fill="#CDCCCC" width="0.6" height="0.6"/>
	<rect x="11.4" y="3.4" fill="#CDCCCC" width="0.6" height="0.6"/>
	<rect x="10.9" y="3.4" fill="#CDCCCC" width="0.6" height="0.6"/>
</g>
<g>
	<rect x="11.4" y="9.2" fill="#CDCCCC" width="0.6" height="0.6"/>
	<rect x="11.4" y="9.7" fill="#CDCCCC" width="0.6" height="0.6"/>
	<rect x="11.4" y="10.3" fill="#CDCCCC" width="0.6" height="0.6"/>
	<rect x="12" y="9.7" fill="#CDCCCC" width="0.6" height="0.6"/>
	<rect x="11.4" y="9.7" fill="#CDCCCC" width="0.6" height="0.6"/>
	<rect x="10.9" y="9.7" fill="#CDCCCC" width="0.6" height="0.6"/>
</g>
<g>
	<rect x="7.4" y="6.3" fill="#CDCCCC" width="0.6" height="0.6"/>
	<rect x="7.4" y="6.9" fill="#CDCCCC" width="0.6" height="0.6"/>
	<rect x="7.4" y="7.4" fill="#CDCCCC" width="0.6" height="0.6"/>
	<rect x="8" y="6.9" fill="#CDCCCC" width="0.6" height="0.6"/>
	<rect x="7.4" y="6.9" fill="#CDCCCC" width="0.6" height="0.6"/>
	<rect x="6.9" y="6.9" fill="#CDCCCC" width="0.6" height="0.6"/>
</g>
<g>
	<rect x="4.6" y="9.2" fill="#CDCCCC" width="0.6" height="0.6"/>
	<rect x="4.6" y="9.7" fill="#CDCCCC" width="0.6" height="0.6"/>
	<rect x="4.6" y="10.3" fill="#CDCCCC" width="0.6" height="0.6"/>
	<rect x="5.1" y="9.7" fill="#CDCCCC" width="0.6" height="0.6"/>
	<rect x="4.6" y="9.7" fill="#CDCCCC" width="0.6" height="0.6"/>
	<rect x="4" y="9.7" fill="#CDCCCC" width="0.6" height="0.6"/>
</g>
<g>
	<rect x="4.6" y="2.9" fill="#CDCCCC" width="0.6" height="0.6"/>
	<rect x="4.6" y="3.4" fill="#CDCCCC" width="0.6" height="0.6"/>
	<rect x="4.6" y="4" fill="#CDCCCC" width="0.6" height="0.6"/>
	<rect x="5.1" y="3.4" fill="#CDCCCC" width="0.6" height="0.6"/>
	<rect x="4.6" y="3.4" fill="#CDCCCC" width="0.6" height="0.6"/>
	<rect x="4" y="3.4" fill="#CDCCCC" width="0.6" height="0.6"/>
</g>
<g>
	<rect x="0.6" y="0" fill="#CDCCCC" width="0.6" height="0.6"/>
	<rect x="0.6" y="0.6" fill="#CDCCCC" width="0.6" height="0.6"/>
	<rect x="0.6" y="1.1" fill="#CDCCCC" width="0.6" height="0.6"/>
	<rect x="1.1" y="0.6" fill="#CDCCCC" width="0.6" height="0.6"/>
	<rect x="0.6" y="0.6" fill="#CDCCCC" width="0.6" height="0.6"/>
	<rect x="0" y="0.6" fill="#CDCCCC" width="0.6" height="0.6"/>
</g>
<g>
	<rect x="0.6" y="6.3" fill="#CDCCCC" width="0.6" height="0.6"/>
	<rect x="0.6" y="6.9" fill="#CDCCCC" width="0.6" height="0.6"/>
	<rect x="0.6" y="7.4" fill="#CDCCCC" width="0.6" height="0.6"/>
	<rect x="1.1" y="6.9" fill="#CDCCCC" width="0.6" height="0.6"/>
	<rect x="0.6" y="6.9" fill="#CDCCCC" width="0.6" height="0.6"/>
	<rect x="0" y="6.9" fill="#CDCCCC" width="0.6" height="0.6"/>
</g>
<rect x="0" y="0" display="none" fill="#CDCCCC" width="14.9" height="12.1"/>
</svg>
